<?xml version="1.0" encoding="us-ascii" standalone="no"?><svg xmlns="http://www.w3.org/2000/svg" xmlns:xlink="http://www.w3.org/1999/xlink" contentStyleType="text/css" height="1168px" preserveAspectRatio="none" style="width:4372px;height:1168px;background:#FFFFFF;" version="1.1" viewBox="0 0 4372 1168" width="4372px" zoomAndPan="magnify"><defs/><g><!--cluster AppSettings--><g id="cluster_AppSettings"><path d="M1088.3,756.5 L1174.3,756.5 A3.75,3.75 0 0 1 1176.8,759 L1183.8,780.1094 L2106.3,780.1094 A2.5,2.5 0 0 1 2108.8,782.6094 L2108.8,1158.5 A2.5,2.5 0 0 1 2106.3,1161 L1088.3,1161 A2.5,2.5 0 0 1 1085.8,1158.5 L1085.8,759 A2.5,2.5 0 0 1 1088.3,756.5 " fill="none" style="stroke:#000000;stroke-width:1.5;"/><line style="stroke:#000000;stroke-width:1.5;" x1="1085.8" x2="1183.8" y1="780.1094" y2="780.1094"/><text fill="#000000" font-family="sans-serif" font-size="14" font-weight="bold" lengthAdjust="spacing" textLength="85" x="1089.8" y="773.0332">AppSettings</text></g><!--cluster Storages--><g id="cluster_Storages"><path d="M2178.3,564.5 L2242.3,564.5 A3.75,3.75 0 0 1 2244.8,567 L2251.8,588.1094 L3004.3,588.1094 A2.5,2.5 0 0 1 3006.8,590.6094 L3006.8,977.5 A2.5,2.5 0 0 1 3004.3,980 L2178.3,980 A2.5,2.5 0 0 1 2175.8,977.5 L2175.8,567 A2.5,2.5 0 0 1 2178.3,564.5 " fill="none" style="stroke:#000000;stroke-width:1.5;"/><line style="stroke:#000000;stroke-width:1.5;" x1="2175.8" x2="2251.8" y1="588.1094" y2="588.1094"/><text fill="#000000" font-family="sans-serif" font-size="14" font-weight="bold" lengthAdjust="spacing" textLength="63" x="2179.8" y="581.0332">Storages</text></g><!--cluster Services--><g id="cluster_Services"><path d="M3418.3,547 L3481.3,547 A3.75,3.75 0 0 1 3483.8,549.5 L3490.8,570.6094 L4200.3,570.6094 A2.5,2.5 0 0 1 4202.8,573.1094 L4202.8,916 A2.5,2.5 0 0 1 4200.3,918.5 L3418.3,918.5 A2.5,2.5 0 0 1 3415.8,916 L3415.8,549.5 A2.5,2.5 0 0 1 3418.3,547 " fill="none" style="stroke:#000000;stroke-width:1.5;"/><line style="stroke:#000000;stroke-width:1.5;" x1="3415.8" x2="3490.8" y1="570.6094" y2="570.6094"/><text fill="#000000" font-family="sans-serif" font-size="14" font-weight="bold" lengthAdjust="spacing" textLength="62" x="3419.8" y="563.5332">Services</text></g><!--class AuthSettings--><g id="elem_AuthSettings"><rect codeLine="3" fill="#F1F1F1" height="100.8281" id="AuthSettings" rx="2.5" ry="2.5" style="stroke:#181818;stroke-width:0.5;" width="193" x="1102.3" y="819"/><ellipse cx="1154.55" cy="835" fill="#ADD1B2" rx="11" ry="11" style="stroke:#181818;stroke-width:1.0;"/><path d="M1157.3156,830.875 Q1157.4719,830.6563 1157.6594,830.5469 Q1157.8469,830.4375 1158.0656,830.4375 Q1158.4406,830.4375 1158.675,830.7031 Q1158.9094,830.9531 1158.9094,831.5625 L1158.9094,833.0156 Q1158.9094,833.625 1158.675,833.8906 Q1158.4406,834.1563 1158.0656,834.1563 Q1157.7219,834.1563 1157.5188,833.9531 Q1157.3156,833.7656 1157.2063,833.25 Q1157.1594,832.8906 1156.9719,832.7031 Q1156.6438,832.3281 1156.0344,832.1094 Q1155.425,831.8906 1154.8,831.8906 Q1154.0344,831.8906 1153.3938,832.2188 Q1152.7688,832.5469 1152.2688,833.2969 Q1151.7844,834.0469 1151.7844,835.0781 L1151.7844,836.1719 Q1151.7844,837.4063 1152.675,838.2344 Q1153.5656,839.0469 1155.1594,839.0469 Q1156.0969,839.0469 1156.7531,838.7969 Q1157.1438,838.6406 1157.5656,838.2031 Q1157.8313,837.9375 1157.9719,837.8594 Q1158.1281,837.7813 1158.3313,837.7813 Q1158.6594,837.7813 1158.9094,838.0469 Q1159.175,838.2969 1159.175,838.6406 Q1159.175,838.9844 1158.8313,839.3906 Q1158.3313,839.9688 1157.5344,840.2969 Q1156.4563,840.75 1155.1594,840.75 Q1153.6438,840.75 1152.4406,840.125 Q1151.4563,839.625 1150.7688,838.5625 Q1150.0813,837.4844 1150.0813,836.2031 L1150.0813,835.0469 Q1150.0813,833.7188 1150.6906,832.5781 Q1151.3156,831.4219 1152.4094,830.8125 Q1153.5031,830.1875 1154.7375,830.1875 Q1155.4719,830.1875 1156.1125,830.3594 Q1156.7688,830.5156 1157.3156,830.875 Z " fill="#000000"/><text fill="#000000" font-family="sans-serif" font-size="14" lengthAdjust="spacing" textLength="80" x="1175.05" y="840.7285">AuthSettings</text><line style="stroke:#181818;stroke-width:0.5;" x1="1103.3" x2="1294.3" y1="851" y2="851"/><ellipse cx="1113.3" cy="865.3047" fill="none" rx="3" ry="3" style="stroke:#038048;stroke-width:1.0;"/><text fill="#000000" font-family="sans-serif" font-size="14" lengthAdjust="spacing" textLength="133" x="1122.3" y="869.5332">Google : GoogleAuth</text><ellipse cx="1113.3" cy="882.9141" fill="none" rx="3" ry="3" style="stroke:#038048;stroke-width:1.0;"/><text fill="#000000" font-family="sans-serif" font-size="14" lengthAdjust="spacing" textLength="127" x="1122.3" y="887.1426">GitHub : GitHubAuth</text><ellipse cx="1113.3" cy="900.5234" fill="none" rx="3" ry="3" style="stroke:#038048;stroke-width:1.0;"/><text fill="#000000" font-family="sans-serif" font-size="14" lengthAdjust="spacing" textLength="167" x="1122.3" y="904.752">Facebook : FacebookAuth</text><line style="stroke:#181818;stroke-width:0.5;" x1="1103.3" x2="1294.3" y1="911.8281" y2="911.8281"/></g><!--class GoogleAuth--><g id="elem_GoogleAuth"><rect codeLine="9" fill="#F1F1F1" height="100.8281" id="GoogleAuth" rx="2.5" ry="2.5" style="stroke:#181818;stroke-width:0.5;" width="156" x="1292.8" y="1044"/><ellipse cx="1329.85" cy="1060" fill="#ADD1B2" rx="11" ry="11" style="stroke:#181818;stroke-width:1.0;"/><path d="M1332.6156,1055.875 Q1332.7719,1055.6563 1332.9594,1055.5469 Q1333.1469,1055.4375 1333.3656,1055.4375 Q1333.7406,1055.4375 1333.975,1055.7031 Q1334.2094,1055.9531 1334.2094,1056.5625 L1334.2094,1058.0156 Q1334.2094,1058.625 1333.975,1058.8906 Q1333.7406,1059.1563 1333.3656,1059.1563 Q1333.0219,1059.1563 1332.8188,1058.9531 Q1332.6156,1058.7656 1332.5063,1058.25 Q1332.4594,1057.8906 1332.2719,1057.7031 Q1331.9438,1057.3281 1331.3344,1057.1094 Q1330.725,1056.8906 1330.1,1056.8906 Q1329.3344,1056.8906 1328.6938,1057.2188 Q1328.0688,1057.5469 1327.5688,1058.2969 Q1327.0844,1059.0469 1327.0844,1060.0781 L1327.0844,1061.1719 Q1327.0844,1062.4063 1327.975,1063.2344 Q1328.8656,1064.0469 1330.4594,1064.0469 Q1331.3969,1064.0469 1332.0531,1063.7969 Q1332.4438,1063.6406 1332.8656,1063.2031 Q1333.1313,1062.9375 1333.2719,1062.8594 Q1333.4281,1062.7813 1333.6313,1062.7813 Q1333.9594,1062.7813 1334.2094,1063.0469 Q1334.475,1063.2969 1334.475,1063.6406 Q1334.475,1063.9844 1334.1313,1064.3906 Q1333.6313,1064.9688 1332.8344,1065.2969 Q1331.7563,1065.75 1330.4594,1065.75 Q1328.9438,1065.75 1327.7406,1065.125 Q1326.7563,1064.625 1326.0688,1063.5625 Q1325.3813,1062.4844 1325.3813,1061.2031 L1325.3813,1060.0469 Q1325.3813,1058.7188 1325.9906,1057.5781 Q1326.6156,1056.4219 1327.7094,1055.8125 Q1328.8031,1055.1875 1330.0375,1055.1875 Q1330.7719,1055.1875 1331.4125,1055.3594 Q1332.0688,1055.5156 1332.6156,1055.875 Z " fill="#000000"/><text fill="#000000" font-family="sans-serif" font-size="14" lengthAdjust="spacing" textLength="75" x="1348.75" y="1065.7285">GoogleAuth</text><line style="stroke:#181818;stroke-width:0.5;" x1="1293.8" x2="1447.8" y1="1076" y2="1076"/><ellipse cx="1303.8" cy="1090.3047" fill="none" rx="3" ry="3" style="stroke:#038048;stroke-width:1.0;"/><text fill="#000000" font-family="sans-serif" font-size="14" lengthAdjust="spacing" textLength="94" x="1312.8" y="1094.5332">ClientId : string</text><ellipse cx="1303.8" cy="1107.9141" fill="none" rx="3" ry="3" style="stroke:#038048;stroke-width:1.0;"/><text fill="#000000" font-family="sans-serif" font-size="14" lengthAdjust="spacing" textLength="124" x="1312.8" y="1112.1426">ClientSecret : string</text><ellipse cx="1303.8" cy="1125.5234" fill="none" rx="3" ry="3" style="stroke:#038048;stroke-width:1.0;"/><text fill="#000000" font-family="sans-serif" font-size="14" lengthAdjust="spacing" textLength="130" x="1312.8" y="1129.752">CallbackPath : string</text><line style="stroke:#181818;stroke-width:0.5;" x1="1293.8" x2="1447.8" y1="1136.8281" y2="1136.8281"/></g><!--class GitHubAuth--><g id="elem_GitHubAuth"><rect codeLine="15" fill="#F1F1F1" height="100.8281" id="GitHubAuth" rx="2.5" ry="2.5" style="stroke:#181818;stroke-width:0.5;" width="156" x="1483.8" y="1044"/><ellipse cx="1522.2" cy="1060" fill="#ADD1B2" rx="11" ry="11" style="stroke:#181818;stroke-width:1.0;"/><path d="M1524.9656,1055.875 Q1525.1219,1055.6563 1525.3094,1055.5469 Q1525.4969,1055.4375 1525.7156,1055.4375 Q1526.0906,1055.4375 1526.325,1055.7031 Q1526.5594,1055.9531 1526.5594,1056.5625 L1526.5594,1058.0156 Q1526.5594,1058.625 1526.325,1058.8906 Q1526.0906,1059.1563 1525.7156,1059.1563 Q1525.3719,1059.1563 1525.1688,1058.9531 Q1524.9656,1058.7656 1524.8563,1058.25 Q1524.8094,1057.8906 1524.6219,1057.7031 Q1524.2938,1057.3281 1523.6844,1057.1094 Q1523.075,1056.8906 1522.45,1056.8906 Q1521.6844,1056.8906 1521.0438,1057.2188 Q1520.4188,1057.5469 1519.9188,1058.2969 Q1519.4344,1059.0469 1519.4344,1060.0781 L1519.4344,1061.1719 Q1519.4344,1062.4063 1520.325,1063.2344 Q1521.2156,1064.0469 1522.8094,1064.0469 Q1523.7469,1064.0469 1524.4031,1063.7969 Q1524.7938,1063.6406 1525.2156,1063.2031 Q1525.4813,1062.9375 1525.6219,1062.8594 Q1525.7781,1062.7813 1525.9813,1062.7813 Q1526.3094,1062.7813 1526.5594,1063.0469 Q1526.825,1063.2969 1526.825,1063.6406 Q1526.825,1063.9844 1526.4813,1064.3906 Q1525.9813,1064.9688 1525.1844,1065.2969 Q1524.1063,1065.75 1522.8094,1065.75 Q1521.2938,1065.75 1520.0906,1065.125 Q1519.1063,1064.625 1518.4188,1063.5625 Q1517.7313,1062.4844 1517.7313,1061.2031 L1517.7313,1060.0469 Q1517.7313,1058.7188 1518.3406,1057.5781 Q1518.9656,1056.4219 1520.0594,1055.8125 Q1521.1531,1055.1875 1522.3875,1055.1875 Q1523.1219,1055.1875 1523.7625,1055.3594 Q1524.4188,1055.5156 1524.9656,1055.875 Z " fill="#000000"/><text fill="#000000" font-family="sans-serif" font-size="14" lengthAdjust="spacing" textLength="72" x="1541.4" y="1065.7285">GitHubAuth</text><line style="stroke:#181818;stroke-width:0.5;" x1="1484.8" x2="1638.8" y1="1076" y2="1076"/><ellipse cx="1494.8" cy="1090.3047" fill="none" rx="3" ry="3" style="stroke:#038048;stroke-width:1.0;"/><text fill="#000000" font-family="sans-serif" font-size="14" lengthAdjust="spacing" textLength="94" x="1503.8" y="1094.5332">ClientId : string</text><ellipse cx="1494.8" cy="1107.9141" fill="none" rx="3" ry="3" style="stroke:#038048;stroke-width:1.0;"/><text fill="#000000" font-family="sans-serif" font-size="14" lengthAdjust="spacing" textLength="124" x="1503.8" y="1112.1426">ClientSecret : string</text><ellipse cx="1494.8" cy="1125.5234" fill="none" rx="3" ry="3" style="stroke:#038048;stroke-width:1.0;"/><text fill="#000000" font-family="sans-serif" font-size="14" lengthAdjust="spacing" textLength="130" x="1503.8" y="1129.752">CallbackPath : string</text><line style="stroke:#181818;stroke-width:0.5;" x1="1484.8" x2="1638.8" y1="1136.8281" y2="1136.8281"/></g><!--class FacebookAuth--><g id="elem_FacebookAuth"><rect codeLine="21" fill="#F1F1F1" height="100.8281" id="FacebookAuth" rx="2.5" ry="2.5" style="stroke:#181818;stroke-width:0.5;" width="156" x="1101.8" y="1044"/><ellipse cx="1131.2" cy="1060" fill="#ADD1B2" rx="11" ry="11" style="stroke:#181818;stroke-width:1.0;"/><path d="M1133.9656,1055.875 Q1134.1219,1055.6563 1134.3094,1055.5469 Q1134.4969,1055.4375 1134.7156,1055.4375 Q1135.0906,1055.4375 1135.325,1055.7031 Q1135.5594,1055.9531 1135.5594,1056.5625 L1135.5594,1058.0156 Q1135.5594,1058.625 1135.325,1058.8906 Q1135.0906,1059.1563 1134.7156,1059.1563 Q1134.3719,1059.1563 1134.1688,1058.9531 Q1133.9656,1058.7656 1133.8563,1058.25 Q1133.8094,1057.8906 1133.6219,1057.7031 Q1133.2938,1057.3281 1132.6844,1057.1094 Q1132.075,1056.8906 1131.45,1056.8906 Q1130.6844,1056.8906 1130.0438,1057.2188 Q1129.4188,1057.5469 1128.9188,1058.2969 Q1128.4344,1059.0469 1128.4344,1060.0781 L1128.4344,1061.1719 Q1128.4344,1062.4063 1129.325,1063.2344 Q1130.2156,1064.0469 1131.8094,1064.0469 Q1132.7469,1064.0469 1133.4031,1063.7969 Q1133.7938,1063.6406 1134.2156,1063.2031 Q1134.4813,1062.9375 1134.6219,1062.8594 Q1134.7781,1062.7813 1134.9813,1062.7813 Q1135.3094,1062.7813 1135.5594,1063.0469 Q1135.825,1063.2969 1135.825,1063.6406 Q1135.825,1063.9844 1135.4813,1064.3906 Q1134.9813,1064.9688 1134.1844,1065.2969 Q1133.1063,1065.75 1131.8094,1065.75 Q1130.2938,1065.75 1129.0906,1065.125 Q1128.1063,1064.625 1127.4188,1063.5625 Q1126.7313,1062.4844 1126.7313,1061.2031 L1126.7313,1060.0469 Q1126.7313,1058.7188 1127.3406,1057.5781 Q1127.9656,1056.4219 1129.0594,1055.8125 Q1130.1531,1055.1875 1131.3875,1055.1875 Q1132.1219,1055.1875 1132.7625,1055.3594 Q1133.4188,1055.5156 1133.9656,1055.875 Z " fill="#000000"/><text fill="#000000" font-family="sans-serif" font-size="14" lengthAdjust="spacing" textLength="92" x="1148.4" y="1065.7285">FacebookAuth</text><line style="stroke:#181818;stroke-width:0.5;" x1="1102.8" x2="1256.8" y1="1076" y2="1076"/><ellipse cx="1112.8" cy="1090.3047" fill="none" rx="3" ry="3" style="stroke:#038048;stroke-width:1.0;"/><text fill="#000000" font-family="sans-serif" font-size="14" lengthAdjust="spacing" textLength="83" x="1121.8" y="1094.5332">AppId : string</text><ellipse cx="1112.8" cy="1107.9141" fill="none" rx="3" ry="3" style="stroke:#038048;stroke-width:1.0;"/><text fill="#000000" font-family="sans-serif" font-size="14" lengthAdjust="spacing" textLength="113" x="1121.8" y="1112.1426">AppSecret : string</text><ellipse cx="1112.8" cy="1125.5234" fill="none" rx="3" ry="3" style="stroke:#038048;stroke-width:1.0;"/><text fill="#000000" font-family="sans-serif" font-size="14" lengthAdjust="spacing" textLength="130" x="1121.8" y="1129.752">CallbackPath : string</text><line style="stroke:#181818;stroke-width:0.5;" x1="1102.8" x2="1256.8" y1="1136.8281" y2="1136.8281"/></g><!--class JwtSettings--><g id="elem_JwtSettings"><rect codeLine="31" fill="#F1F1F1" height="100.8281" id="JwtSettings" rx="2.5" ry="2.5" style="stroke:#181818;stroke-width:0.5;" width="138" x="1330.8" y="819"/><ellipse cx="1362" cy="835" fill="#ADD1B2" rx="11" ry="11" style="stroke:#181818;stroke-width:1.0;"/><path d="M1364.7656,830.875 Q1364.9219,830.6563 1365.1094,830.5469 Q1365.2969,830.4375 1365.5156,830.4375 Q1365.8906,830.4375 1366.125,830.7031 Q1366.3594,830.9531 1366.3594,831.5625 L1366.3594,833.0156 Q1366.3594,833.625 1366.125,833.8906 Q1365.8906,834.1563 1365.5156,834.1563 Q1365.1719,834.1563 1364.9688,833.9531 Q1364.7656,833.7656 1364.6563,833.25 Q1364.6094,832.8906 1364.4219,832.7031 Q1364.0938,832.3281 1363.4844,832.1094 Q1362.875,831.8906 1362.25,831.8906 Q1361.4844,831.8906 1360.8438,832.2188 Q1360.2188,832.5469 1359.7188,833.2969 Q1359.2344,834.0469 1359.2344,835.0781 L1359.2344,836.1719 Q1359.2344,837.4063 1360.125,838.2344 Q1361.0156,839.0469 1362.6094,839.0469 Q1363.5469,839.0469 1364.2031,838.7969 Q1364.5938,838.6406 1365.0156,838.2031 Q1365.2813,837.9375 1365.4219,837.8594 Q1365.5781,837.7813 1365.7813,837.7813 Q1366.1094,837.7813 1366.3594,838.0469 Q1366.625,838.2969 1366.625,838.6406 Q1366.625,838.9844 1366.2813,839.3906 Q1365.7813,839.9688 1364.9844,840.2969 Q1363.9063,840.75 1362.6094,840.75 Q1361.0938,840.75 1359.8906,840.125 Q1358.9063,839.625 1358.2188,838.5625 Q1357.5313,837.4844 1357.5313,836.2031 L1357.5313,835.0469 Q1357.5313,833.7188 1358.1406,832.5781 Q1358.7656,831.4219 1359.8594,830.8125 Q1360.9531,830.1875 1362.1875,830.1875 Q1362.9219,830.1875 1363.5625,830.3594 Q1364.2188,830.5156 1364.7656,830.875 Z " fill="#000000"/><text fill="#000000" font-family="sans-serif" font-size="14" lengthAdjust="spacing" textLength="70" x="1379.6" y="840.7285">JwtSettings</text><line style="stroke:#181818;stroke-width:0.5;" x1="1331.8" x2="1467.8" y1="851" y2="851"/><ellipse cx="1341.8" cy="865.3047" fill="none" rx="3" ry="3" style="stroke:#038048;stroke-width:1.0;"/><text fill="#000000" font-family="sans-serif" font-size="14" lengthAdjust="spacing" textLength="112" x="1350.8" y="869.5332">SecretKey : string</text><ellipse cx="1341.8" cy="882.9141" fill="none" rx="3" ry="3" style="stroke:#038048;stroke-width:1.0;"/><text fill="#000000" font-family="sans-serif" font-size="14" lengthAdjust="spacing" textLength="85" x="1350.8" y="887.1426">Issuer : string</text><ellipse cx="1341.8" cy="900.5234" fill="none" rx="3" ry="3" style="stroke:#038048;stroke-width:1.0;"/><text fill="#000000" font-family="sans-serif" font-size="14" lengthAdjust="spacing" textLength="106" x="1350.8" y="904.752">Audience : string</text><line style="stroke:#181818;stroke-width:0.5;" x1="1331.8" x2="1467.8" y1="911.8281" y2="911.8281"/></g><!--class SecurityNotificationSettings--><g id="elem_SecurityNotificationSettings"><rect codeLine="37" fill="#F1F1F1" height="153.6563" id="SecurityNotificationSettings" rx="2.5" ry="2.5" style="stroke:#181818;stroke-width:0.5;" width="203" x="1889.3" y="792.5"/><ellipse cx="1904.3" cy="808.5" fill="#ADD1B2" rx="11" ry="11" style="stroke:#181818;stroke-width:1.0;"/><path d="M1907.0656,804.375 Q1907.2219,804.1563 1907.4094,804.0469 Q1907.5969,803.9375 1907.8156,803.9375 Q1908.1906,803.9375 1908.425,804.2031 Q1908.6594,804.4531 1908.6594,805.0625 L1908.6594,806.5156 Q1908.6594,807.125 1908.425,807.3906 Q1908.1906,807.6563 1907.8156,807.6563 Q1907.4719,807.6563 1907.2688,807.4531 Q1907.0656,807.2656 1906.9563,806.75 Q1906.9094,806.3906 1906.7219,806.2031 Q1906.3938,805.8281 1905.7844,805.6094 Q1905.175,805.3906 1904.55,805.3906 Q1903.7844,805.3906 1903.1438,805.7188 Q1902.5188,806.0469 1902.0188,806.7969 Q1901.5344,807.5469 1901.5344,808.5781 L1901.5344,809.6719 Q1901.5344,810.9063 1902.425,811.7344 Q1903.3156,812.5469 1904.9094,812.5469 Q1905.8469,812.5469 1906.5031,812.2969 Q1906.8938,812.1406 1907.3156,811.7031 Q1907.5813,811.4375 1907.7219,811.3594 Q1907.8781,811.2813 1908.0813,811.2813 Q1908.4094,811.2813 1908.6594,811.5469 Q1908.925,811.7969 1908.925,812.1406 Q1908.925,812.4844 1908.5813,812.8906 Q1908.0813,813.4688 1907.2844,813.7969 Q1906.2063,814.25 1904.9094,814.25 Q1903.3938,814.25 1902.1906,813.625 Q1901.2063,813.125 1900.5188,812.0625 Q1899.8313,810.9844 1899.8313,809.7031 L1899.8313,808.5469 Q1899.8313,807.2188 1900.4406,806.0781 Q1901.0656,804.9219 1902.1594,804.3125 Q1903.2531,803.6875 1904.4875,803.6875 Q1905.2219,803.6875 1905.8625,803.8594 Q1906.5188,804.0156 1907.0656,804.375 Z " fill="#000000"/><text fill="#000000" font-family="sans-serif" font-size="14" lengthAdjust="spacing" textLength="171" x="1918.3" y="814.2285">SecurityNotificationSettings</text><line style="stroke:#181818;stroke-width:0.5;" x1="1890.3" x2="2091.3" y1="824.5" y2="824.5"/><ellipse cx="1900.3" cy="838.8047" fill="none" rx="3" ry="3" style="stroke:#038048;stroke-width:1.0;"/><text fill="#000000" font-family="sans-serif" font-size="14" lengthAdjust="spacing" textLength="121" x="1909.3" y="843.0332">SmtpServer : string</text><ellipse cx="1900.3" cy="856.4141" fill="none" rx="3" ry="3" style="stroke:#038048;stroke-width:1.0;"/><text fill="#000000" font-family="sans-serif" font-size="14" lengthAdjust="spacing" textLength="85" x="1909.3" y="860.6426">SmtpPort : int</text><ellipse cx="1900.3" cy="874.0234" fill="none" rx="3" ry="3" style="stroke:#038048;stroke-width:1.0;"/><text fill="#000000" font-family="sans-serif" font-size="14" lengthAdjust="spacing" textLength="127" x="1909.3" y="878.252">SenderEmail : string</text><ellipse cx="1900.3" cy="891.6328" fill="none" rx="3" ry="3" style="stroke:#038048;stroke-width:1.0;"/><text fill="#000000" font-family="sans-serif" font-size="14" lengthAdjust="spacing" textLength="154" x="1909.3" y="895.8613">SenderPassword : string</text><ellipse cx="1900.3" cy="909.2422" fill="none" rx="3" ry="3" style="stroke:#038048;stroke-width:1.0;"/><text fill="#000000" font-family="sans-serif" font-size="14" lengthAdjust="spacing" textLength="129" x="1909.3" y="913.4707">SenderName : string</text><ellipse cx="1900.3" cy="926.8516" fill="none" rx="3" ry="3" style="stroke:#038048;stroke-width:1.0;"/><text fill="#000000" font-family="sans-serif" font-size="14" lengthAdjust="spacing" textLength="102" x="1909.3" y="931.0801">EnableSsl : bool</text><line style="stroke:#181818;stroke-width:0.5;" x1="1890.3" x2="2091.3" y1="938.1563" y2="938.1563"/></g><!--class TimeSettings--><g id="elem_TimeSettings"><rect codeLine="46" fill="#F1F1F1" height="136.0469" id="TimeSettings" rx="2.5" ry="2.5" style="stroke:#181818;stroke-width:0.5;" width="350" x="1503.8" y="801.5"/><ellipse cx="1633.55" cy="817.5" fill="#ADD1B2" rx="11" ry="11" style="stroke:#181818;stroke-width:1.0;"/><path d="M1636.3156,813.375 Q1636.4719,813.1563 1636.6594,813.0469 Q1636.8469,812.9375 1637.0656,812.9375 Q1637.4406,812.9375 1637.675,813.2031 Q1637.9094,813.4531 1637.9094,814.0625 L1637.9094,815.5156 Q1637.9094,816.125 1637.675,816.3906 Q1637.4406,816.6563 1637.0656,816.6563 Q1636.7219,816.6563 1636.5188,816.4531 Q1636.3156,816.2656 1636.2063,815.75 Q1636.1594,815.3906 1635.9719,815.2031 Q1635.6438,814.8281 1635.0344,814.6094 Q1634.425,814.3906 1633.8,814.3906 Q1633.0344,814.3906 1632.3938,814.7188 Q1631.7688,815.0469 1631.2688,815.7969 Q1630.7844,816.5469 1630.7844,817.5781 L1630.7844,818.6719 Q1630.7844,819.9063 1631.675,820.7344 Q1632.5656,821.5469 1634.1594,821.5469 Q1635.0969,821.5469 1635.7531,821.2969 Q1636.1438,821.1406 1636.5656,820.7031 Q1636.8313,820.4375 1636.9719,820.3594 Q1637.1281,820.2813 1637.3313,820.2813 Q1637.6594,820.2813 1637.9094,820.5469 Q1638.175,820.7969 1638.175,821.1406 Q1638.175,821.4844 1637.8313,821.8906 Q1637.3313,822.4688 1636.5344,822.7969 Q1635.4563,823.25 1634.1594,823.25 Q1632.6438,823.25 1631.4406,822.625 Q1630.4563,822.125 1629.7688,821.0625 Q1629.0813,819.9844 1629.0813,818.7031 L1629.0813,817.5469 Q1629.0813,816.2188 1629.6906,815.0781 Q1630.3156,813.9219 1631.4094,813.3125 Q1632.5031,812.6875 1633.7375,812.6875 Q1634.4719,812.6875 1635.1125,812.8594 Q1635.7688,813.0156 1636.3156,813.375 Z " fill="#000000"/><text fill="#000000" font-family="sans-serif" font-size="14" lengthAdjust="spacing" textLength="82" x="1654.05" y="823.2285">TimeSettings</text><line style="stroke:#181818;stroke-width:0.5;" x1="1504.8" x2="1852.8" y1="833.5" y2="833.5"/><ellipse cx="1514.8" cy="847.8047" fill="none" rx="3" ry="3" style="stroke:#038048;stroke-width:1.0;"/><text fill="#000000" font-family="sans-serif" font-size="14" lengthAdjust="spacing" textLength="169" x="1523.8" y="852.0332">CookieLifetime : TimeSpan</text><ellipse cx="1514.8" cy="865.4141" fill="none" rx="3" ry="3" style="stroke:#038048;stroke-width:1.0;"/><text fill="#000000" font-family="sans-serif" font-size="14" lengthAdjust="spacing" textLength="144" x="1523.8" y="869.6426">JwtLifetime : TimeSpan</text><ellipse cx="1514.8" cy="883.0234" fill="none" rx="3" ry="3" style="stroke:#038048;stroke-width:1.0;"/><text fill="#000000" font-family="sans-serif" font-size="14" lengthAdjust="spacing" textLength="165" x="1523.8" y="887.252">TokenLifetime : TimeSpan</text><ellipse cx="1514.8" cy="900.6328" fill="none" rx="3" ry="3" style="stroke:#038048;stroke-width:1.0;"/><text fill="#000000" font-family="sans-serif" font-size="14" lengthAdjust="spacing" textLength="169" x="1523.8" y="904.8613">Cleanup : CleanupSettings</text><ellipse cx="1514.8" cy="918.2422" fill="none" rx="3" ry="3" style="stroke:#038048;stroke-width:1.0;"/><text fill="#000000" font-family="sans-serif" font-size="14" lengthAdjust="spacing" textLength="324" x="1523.8" y="922.4707">GetNextCleanupTime : Func&lt;DateTime, DateTime&gt;</text><line style="stroke:#181818;stroke-width:0.5;" x1="1504.8" x2="1852.8" y1="929.5469" y2="929.5469"/></g><!--class CleanupSettings--><g id="elem_CleanupSettings"><rect codeLine="54" fill="#F1F1F1" height="83.2188" id="CleanupSettings" rx="2.5" ry="2.5" style="stroke:#181818;stroke-width:0.5;" width="148" x="1674.8" y="1053"/><ellipse cx="1695.2" cy="1069" fill="#ADD1B2" rx="11" ry="11" style="stroke:#181818;stroke-width:1.0;"/><path d="M1697.9656,1064.875 Q1698.1219,1064.6563 1698.3094,1064.5469 Q1698.4969,1064.4375 1698.7156,1064.4375 Q1699.0906,1064.4375 1699.325,1064.7031 Q1699.5594,1064.9531 1699.5594,1065.5625 L1699.5594,1067.0156 Q1699.5594,1067.625 1699.325,1067.8906 Q1699.0906,1068.1563 1698.7156,1068.1563 Q1698.3719,1068.1563 1698.1688,1067.9531 Q1697.9656,1067.7656 1697.8563,1067.25 Q1697.8094,1066.8906 1697.6219,1066.7031 Q1697.2938,1066.3281 1696.6844,1066.1094 Q1696.075,1065.8906 1695.45,1065.8906 Q1694.6844,1065.8906 1694.0438,1066.2188 Q1693.4188,1066.5469 1692.9188,1067.2969 Q1692.4344,1068.0469 1692.4344,1069.0781 L1692.4344,1070.1719 Q1692.4344,1071.4063 1693.325,1072.2344 Q1694.2156,1073.0469 1695.8094,1073.0469 Q1696.7469,1073.0469 1697.4031,1072.7969 Q1697.7938,1072.6406 1698.2156,1072.2031 Q1698.4813,1071.9375 1698.6219,1071.8594 Q1698.7781,1071.7813 1698.9813,1071.7813 Q1699.3094,1071.7813 1699.5594,1072.0469 Q1699.825,1072.2969 1699.825,1072.6406 Q1699.825,1072.9844 1699.4813,1073.3906 Q1698.9813,1073.9688 1698.1844,1074.2969 Q1697.1063,1074.75 1695.8094,1074.75 Q1694.2938,1074.75 1693.0906,1074.125 Q1692.1063,1073.625 1691.4188,1072.5625 Q1690.7313,1071.4844 1690.7313,1070.2031 L1690.7313,1069.0469 Q1690.7313,1067.7188 1691.3406,1066.5781 Q1691.9656,1065.4219 1693.0594,1064.8125 Q1694.1531,1064.1875 1695.3875,1064.1875 Q1696.1219,1064.1875 1696.7625,1064.3594 Q1697.4188,1064.5156 1697.9656,1064.875 Z " fill="#000000"/><text fill="#000000" font-family="sans-serif" font-size="14" lengthAdjust="spacing" textLength="104" x="1710.4" y="1074.7285">CleanupSettings</text><line style="stroke:#181818;stroke-width:0.5;" x1="1675.8" x2="1821.8" y1="1085" y2="1085"/><ellipse cx="1685.8" cy="1099.3047" fill="none" rx="3" ry="3" style="stroke:#038048;stroke-width:1.0;"/><text fill="#000000" font-family="sans-serif" font-size="14" lengthAdjust="spacing" textLength="77" x="1694.8" y="1103.5332">Start : string</text><ellipse cx="1685.8" cy="1116.9141" fill="none" rx="3" ry="3" style="stroke:#038048;stroke-width:1.0;"/><text fill="#000000" font-family="sans-serif" font-size="14" lengthAdjust="spacing" textLength="122" x="1694.8" y="1121.1426">Interval : TimeSpan</text><line style="stroke:#181818;stroke-width:0.5;" x1="1675.8" x2="1821.8" y1="1128.2188" y2="1128.2188"/></g><!--class IRefreshTokenStorage--><g id="elem_IRefreshTokenStorage"><rect codeLine="63" fill="#F1F1F1" height="188.875" id="IRefreshTokenStorage" rx="2.5" ry="2.5" style="stroke:#181818;stroke-width:0.5;" width="534" x="2191.8" y="775"/><ellipse cx="2382.05" cy="791" fill="#B4A7E5" rx="11" ry="11" style="stroke:#181818;stroke-width:1.0;"/><path d="M2383.0031,787.6406 L2383.0031,794.2969 L2384.7219,794.2969 Q2385.3312,794.2969 2385.5969,794.5313 Q2385.8625,794.7656 2385.8625,795.1563 Q2385.8625,795.5313 2385.5969,795.7656 Q2385.3312,796 2384.7219,796 L2379.5812,796 Q2378.9719,796 2378.7062,795.7656 Q2378.4406,795.5313 2378.4406,795.1406 Q2378.4406,794.7656 2378.7062,794.5313 Q2378.9719,794.2969 2379.5812,794.2969 L2381.3,794.2969 L2381.3,787.6406 L2379.5812,787.6406 Q2378.9719,787.6406 2378.7062,787.4063 Q2378.4406,787.1719 2378.4406,786.7813 Q2378.4406,786.4063 2378.7062,786.1719 Q2378.9719,785.9375 2379.5812,785.9375 L2384.7219,785.9375 Q2385.3312,785.9375 2385.5969,786.1719 Q2385.8625,786.4063 2385.8625,786.7813 Q2385.8625,787.1719 2385.5969,787.4063 Q2385.3312,787.6406 2384.7219,787.6406 L2383.0031,787.6406 Z " fill="#000000"/><text fill="#000000" font-family="sans-serif" font-size="14" font-style="italic" lengthAdjust="spacing" textLength="145" x="2402.55" y="796.7285">IRefreshTokenStorage</text><line style="stroke:#181818;stroke-width:0.5;" x1="2192.8" x2="2724.8" y1="807" y2="807"/><line style="stroke:#181818;stroke-width:0.5;" x1="2192.8" x2="2724.8" y1="815" y2="815"/><ellipse cx="2202.8" cy="829.3047" fill="#84BE84" rx="3" ry="3" style="stroke:#038048;stroke-width:1.0;"/><text fill="#000000" font-family="sans-serif" font-size="14" lengthAdjust="spacing" textLength="374" x="2211.8" y="833.5332">GenerateRefreshTokenAsync(userId: string) : Task&lt;string&gt;</text><ellipse cx="2202.8" cy="846.9141" fill="#84BE84" rx="3" ry="3" style="stroke:#038048;stroke-width:1.0;"/><text fill="#000000" font-family="sans-serif" font-size="14" lengthAdjust="spacing" textLength="433" x="2211.8" y="851.1426">StoreRefreshTokenAsync(userId: string, refreshToken: string) : Task</text><ellipse cx="2202.8" cy="864.5234" fill="#84BE84" rx="3" ry="3" style="stroke:#038048;stroke-width:1.0;"/><text fill="#000000" font-family="sans-serif" font-size="14" lengthAdjust="spacing" textLength="493" x="2211.8" y="868.752">ValidateRefreshTokenAsync(userId: string, refreshToken: string) : Task&lt;bool&gt;</text><ellipse cx="2202.8" cy="882.1328" fill="#84BE84" rx="3" ry="3" style="stroke:#038048;stroke-width:1.0;"/><text fill="#000000" font-family="sans-serif" font-size="14" lengthAdjust="spacing" textLength="447" x="2211.8" y="886.3613">RevokeRefreshTokenAsync(userId: string, refreshToken: string) : Task</text><ellipse cx="2202.8" cy="899.7422" fill="#84BE84" rx="3" ry="3" style="stroke:#038048;stroke-width:1.0;"/><text fill="#000000" font-family="sans-serif" font-size="14" lengthAdjust="spacing" textLength="324" x="2211.8" y="903.9707">ExpireAllRefreshTokensAsync(userId: string) : Task</text><ellipse cx="2202.8" cy="917.3516" fill="#84BE84" rx="3" ry="3" style="stroke:#038048;stroke-width:1.0;"/><text fill="#000000" font-family="sans-serif" font-size="14" lengthAdjust="spacing" textLength="508" x="2211.8" y="921.5801">IsRevokedRefreshTokenAsync(userId: string, refreshToken: string) : Task&lt;bool&gt;</text><ellipse cx="2202.8" cy="934.9609" fill="#84BE84" rx="3" ry="3" style="stroke:#038048;stroke-width:1.0;"/><text fill="#000000" font-family="sans-serif" font-size="14" lengthAdjust="spacing" textLength="499" x="2211.8" y="939.1895">IsExpiredRefreshTokenAsync(userId: string, refreshToken: string) : Task&lt;bool&gt;</text><ellipse cx="2202.8" cy="952.5703" fill="#84BE84" rx="3" ry="3" style="stroke:#038048;stroke-width:1.0;"/><text fill="#000000" font-family="sans-serif" font-size="14" lengthAdjust="spacing" textLength="492" x="2211.8" y="956.7988">RotateRefreshTokenAsync(userId: string, refreshToken: string) : Task&lt;string&gt;</text></g><!--class IRefreshTokenStorageCleanup--><g id="elem_IRefreshTokenStorageCleanup"><rect codeLine="74" fill="#F1F1F1" height="65.6094" id="IRefreshTokenStorageCleanup" rx="2.5" ry="2.5" style="stroke:#181818;stroke-width:0.5;" width="230" x="2760.8" y="836.5"/><ellipse cx="2775.8" cy="852.5" fill="#B4A7E5" rx="11" ry="11" style="stroke:#181818;stroke-width:1.0;"/><path d="M2776.7531,849.1406 L2776.7531,855.7969 L2778.4719,855.7969 Q2779.0812,855.7969 2779.3469,856.0313 Q2779.6125,856.2656 2779.6125,856.6563 Q2779.6125,857.0313 2779.3469,857.2656 Q2779.0812,857.5 2778.4719,857.5 L2773.3312,857.5 Q2772.7219,857.5 2772.4562,857.2656 Q2772.1906,857.0313 2772.1906,856.6406 Q2772.1906,856.2656 2772.4562,856.0313 Q2772.7219,855.7969 2773.3312,855.7969 L2775.05,855.7969 L2775.05,849.1406 L2773.3312,849.1406 Q2772.7219,849.1406 2772.4562,848.9063 Q2772.1906,848.6719 2772.1906,848.2813 Q2772.1906,847.9063 2772.4562,847.6719 Q2772.7219,847.4375 2773.3312,847.4375 L2778.4719,847.4375 Q2779.0812,847.4375 2779.3469,847.6719 Q2779.6125,847.9063 2779.6125,848.2813 Q2779.6125,848.6719 2779.3469,848.9063 Q2779.0812,849.1406 2778.4719,849.1406 L2776.7531,849.1406 Z " fill="#000000"/><text fill="#000000" font-family="sans-serif" font-size="14" font-style="italic" lengthAdjust="spacing" textLength="198" x="2789.8" y="858.2285">IRefreshTokenStorageCleanup</text><line style="stroke:#181818;stroke-width:0.5;" x1="2761.8" x2="2989.8" y1="868.5" y2="868.5"/><line style="stroke:#181818;stroke-width:0.5;" x1="2761.8" x2="2989.8" y1="876.5" y2="876.5"/><ellipse cx="2771.8" cy="890.8047" fill="#84BE84" rx="3" ry="3" style="stroke:#038048;stroke-width:1.0;"/><text fill="#000000" font-family="sans-serif" font-size="14" lengthAdjust="spacing" textLength="200" x="2780.8" y="895.0332">CleanupExpiredTokens() : Task</text></g><!--class InMemoryRefreshTokenStorage--><g id="elem_InMemoryRefreshTokenStorage"><rect codeLine="78" fill="#F1F1F1" height="65.6094" id="InMemoryRefreshTokenStorage" rx="2.5" ry="2.5" style="stroke:#181818;stroke-width:0.5;" width="271" x="2323.3" y="600.5"/><ellipse cx="2355.4" cy="616.5" fill="#ADD1B2" rx="11" ry="11" style="stroke:#181818;stroke-width:1.0;"/><path d="M2358.1656,612.375 Q2358.3219,612.1563 2358.5094,612.0469 Q2358.6969,611.9375 2358.9156,611.9375 Q2359.2906,611.9375 2359.525,612.2031 Q2359.7594,612.4531 2359.7594,613.0625 L2359.7594,614.5156 Q2359.7594,615.125 2359.525,615.3906 Q2359.2906,615.6563 2358.9156,615.6563 Q2358.5719,615.6563 2358.3687,615.4531 Q2358.1656,615.2656 2358.0562,614.75 Q2358.0094,614.3906 2357.8219,614.2031 Q2357.4937,613.8281 2356.8844,613.6094 Q2356.275,613.3906 2355.65,613.3906 Q2354.8844,613.3906 2354.2437,613.7188 Q2353.6187,614.0469 2353.1187,614.7969 Q2352.6344,615.5469 2352.6344,616.5781 L2352.6344,617.6719 Q2352.6344,618.9063 2353.525,619.7344 Q2354.4156,620.5469 2356.0094,620.5469 Q2356.9469,620.5469 2357.6031,620.2969 Q2357.9937,620.1406 2358.4156,619.7031 Q2358.6812,619.4375 2358.8219,619.3594 Q2358.9781,619.2813 2359.1812,619.2813 Q2359.5094,619.2813 2359.7594,619.5469 Q2360.025,619.7969 2360.025,620.1406 Q2360.025,620.4844 2359.6812,620.8906 Q2359.1812,621.4688 2358.3844,621.7969 Q2357.3062,622.25 2356.0094,622.25 Q2354.4937,622.25 2353.2906,621.625 Q2352.3062,621.125 2351.6187,620.0625 Q2350.9312,618.9844 2350.9312,617.7031 L2350.9312,616.5469 Q2350.9312,615.2188 2351.5406,614.0781 Q2352.1656,612.9219 2353.2594,612.3125 Q2354.3531,611.6875 2355.5875,611.6875 Q2356.3219,611.6875 2356.9625,611.8594 Q2357.6187,612.0156 2358.1656,612.375 Z " fill="#000000"/><text fill="#000000" font-family="sans-serif" font-size="14" lengthAdjust="spacing" textLength="201" x="2373.2" y="622.2285">InMemoryRefreshTokenStorage</text><line style="stroke:#181818;stroke-width:0.5;" x1="2324.3" x2="2593.3" y1="632.5" y2="632.5"/><line style="stroke:#181818;stroke-width:0.5;" x1="2324.3" x2="2593.3" y1="640.5" y2="640.5"/><rect fill="#F24D5C" height="6" style="stroke:#C82930;stroke-width:1.0;" width="6" x="2331.3" y="651.8047"/><text fill="#000000" font-family="sans-serif" font-size="14" lengthAdjust="spacing" textLength="245" x="2343.3" y="659.0332">_timeSettings : TimeSettings (injection)</text></g><!--class ISecurityNotificationService--><g id="elem_ISecurityNotificationService"><rect codeLine="88" fill="#F1F1F1" height="65.6094" id="ISecurityNotificationService" rx="2.5" ry="2.5" style="stroke:#181818;stroke-width:0.5;" width="703" x="3432.3" y="836.5"/><ellipse cx="3694.05" cy="852.5" fill="#B4A7E5" rx="11" ry="11" style="stroke:#181818;stroke-width:1.0;"/><path d="M3695.0031,849.1406 L3695.0031,855.7969 L3696.7219,855.7969 Q3697.3312,855.7969 3697.5969,856.0313 Q3697.8625,856.2656 3697.8625,856.6563 Q3697.8625,857.0313 3697.5969,857.2656 Q3697.3312,857.5 3696.7219,857.5 L3691.5812,857.5 Q3690.9719,857.5 3690.7062,857.2656 Q3690.4406,857.0313 3690.4406,856.6406 Q3690.4406,856.2656 3690.7062,856.0313 Q3690.9719,855.7969 3691.5812,855.7969 L3693.3,855.7969 L3693.3,849.1406 L3691.5812,849.1406 Q3690.9719,849.1406 3690.7062,848.9063 Q3690.4406,848.6719 3690.4406,848.2813 Q3690.4406,847.9063 3690.7062,847.6719 Q3690.9719,847.4375 3691.5812,847.4375 L3696.7219,847.4375 Q3697.3312,847.4375 3697.5969,847.6719 Q3697.8625,847.9063 3697.8625,848.2813 Q3697.8625,848.6719 3697.5969,848.9063 Q3697.3312,849.1406 3696.7219,849.1406 L3695.0031,849.1406 Z " fill="#000000"/><text fill="#000000" font-family="sans-serif" font-size="14" font-style="italic" lengthAdjust="spacing" textLength="171" x="3714.55" y="858.2285">ISecurityNotificationService</text><line style="stroke:#181818;stroke-width:0.5;" x1="3433.3" x2="4134.3" y1="868.5" y2="868.5"/><line style="stroke:#181818;stroke-width:0.5;" x1="3433.3" x2="4134.3" y1="876.5" y2="876.5"/><ellipse cx="3443.3" cy="890.8047" fill="#84BE84" rx="3" ry="3" style="stroke:#038048;stroke-width:1.0;"/><text fill="#000000" font-family="sans-serif" font-size="14" lengthAdjust="spacing" textLength="677" x="3452.3" y="895.0332">NotifyPossibleTokenTheftAsync(userId: string, userEmail: string, ipAddress: string, userAgent: string) : Task</text></g><!--class EmailSecurityNotificationService--><g id="elem_EmailSecurityNotificationService"><rect codeLine="92" fill="#F1F1F1" height="65.6094" id="EmailSecurityNotificationService" rx="2.5" ry="2.5" style="stroke:#181818;stroke-width:0.5;" width="332" x="3431.8" y="600.5"/><ellipse cx="3493.05" cy="616.5" fill="#ADD1B2" rx="11" ry="11" style="stroke:#181818;stroke-width:1.0;"/><path d="M3495.8156,612.375 Q3495.9719,612.1563 3496.1594,612.0469 Q3496.3469,611.9375 3496.5656,611.9375 Q3496.9406,611.9375 3497.175,612.2031 Q3497.4094,612.4531 3497.4094,613.0625 L3497.4094,614.5156 Q3497.4094,615.125 3497.175,615.3906 Q3496.9406,615.6563 3496.5656,615.6563 Q3496.2219,615.6563 3496.0187,615.4531 Q3495.8156,615.2656 3495.7062,614.75 Q3495.6594,614.3906 3495.4719,614.2031 Q3495.1437,613.8281 3494.5344,613.6094 Q3493.925,613.3906 3493.3,613.3906 Q3492.5344,613.3906 3491.8937,613.7188 Q3491.2687,614.0469 3490.7687,614.7969 Q3490.2844,615.5469 3490.2844,616.5781 L3490.2844,617.6719 Q3490.2844,618.9063 3491.175,619.7344 Q3492.0656,620.5469 3493.6594,620.5469 Q3494.5969,620.5469 3495.2531,620.2969 Q3495.6437,620.1406 3496.0656,619.7031 Q3496.3312,619.4375 3496.4719,619.3594 Q3496.6281,619.2813 3496.8312,619.2813 Q3497.1594,619.2813 3497.4094,619.5469 Q3497.675,619.7969 3497.675,620.1406 Q3497.675,620.4844 3497.3312,620.8906 Q3496.8312,621.4688 3496.0344,621.7969 Q3494.9562,622.25 3493.6594,622.25 Q3492.1437,622.25 3490.9406,621.625 Q3489.9562,621.125 3489.2687,620.0625 Q3488.5812,618.9844 3488.5812,617.7031 L3488.5812,616.5469 Q3488.5812,615.2188 3489.1906,614.0781 Q3489.8156,612.9219 3490.9094,612.3125 Q3492.0031,611.6875 3493.2375,611.6875 Q3493.9719,611.6875 3494.6125,611.8594 Q3495.2687,612.0156 3495.8156,612.375 Z " fill="#000000"/><text fill="#000000" font-family="sans-serif" font-size="14" lengthAdjust="spacing" textLength="201" x="3513.55" y="622.2285">EmailSecurityNotificationService</text><line style="stroke:#181818;stroke-width:0.5;" x1="3432.8" x2="3762.8" y1="632.5" y2="632.5"/><line style="stroke:#181818;stroke-width:0.5;" x1="3432.8" x2="3762.8" y1="640.5" y2="640.5"/><rect fill="#F24D5C" height="6" style="stroke:#C82930;stroke-width:1.0;" width="6" x="3439.8" y="651.8047"/><text fill="#000000" font-family="sans-serif" font-size="14" lengthAdjust="spacing" textLength="306" x="3451.8" y="659.0332">_settings : SecurityNotificationSettings (injection)</text></g><!--class TokenCleanupService--><g id="elem_TokenCleanupService"><rect codeLine="99" fill="#F1F1F1" height="100.8281" id="TokenCleanupService" rx="2.5" ry="2.5" style="stroke:#181818;stroke-width:0.5;" width="387" x="3799.3" y="583"/><ellipse cx="3918.55" cy="599" fill="#ADD1B2" rx="11" ry="11" style="stroke:#181818;stroke-width:1.0;"/><path d="M3921.3156,594.875 Q3921.4719,594.6563 3921.6594,594.5469 Q3921.8469,594.4375 3922.0656,594.4375 Q3922.4406,594.4375 3922.675,594.7031 Q3922.9094,594.9531 3922.9094,595.5625 L3922.9094,597.0156 Q3922.9094,597.625 3922.675,597.8906 Q3922.4406,598.1563 3922.0656,598.1563 Q3921.7219,598.1563 3921.5187,597.9531 Q3921.3156,597.7656 3921.2062,597.25 Q3921.1594,596.8906 3920.9719,596.7031 Q3920.6437,596.3281 3920.0344,596.1094 Q3919.425,595.8906 3918.8,595.8906 Q3918.0344,595.8906 3917.3937,596.2188 Q3916.7687,596.5469 3916.2687,597.2969 Q3915.7844,598.0469 3915.7844,599.0781 L3915.7844,600.1719 Q3915.7844,601.4063 3916.675,602.2344 Q3917.5656,603.0469 3919.1594,603.0469 Q3920.0969,603.0469 3920.7531,602.7969 Q3921.1437,602.6406 3921.5656,602.2031 Q3921.8312,601.9375 3921.9719,601.8594 Q3922.1281,601.7813 3922.3312,601.7813 Q3922.6594,601.7813 3922.9094,602.0469 Q3923.175,602.2969 3923.175,602.6406 Q3923.175,602.9844 3922.8312,603.3906 Q3922.3312,603.9688 3921.5344,604.2969 Q3920.4562,604.75 3919.1594,604.75 Q3917.6437,604.75 3916.4406,604.125 Q3915.4562,603.625 3914.7687,602.5625 Q3914.0812,601.4844 3914.0812,600.2031 L3914.0812,599.0469 Q3914.0812,597.7188 3914.6906,596.5781 Q3915.3156,595.4219 3916.4094,594.8125 Q3917.5031,594.1875 3918.7375,594.1875 Q3919.4719,594.1875 3920.1125,594.3594 Q3920.7687,594.5156 3921.3156,594.875 Z " fill="#000000"/><text fill="#000000" font-family="sans-serif" font-size="14" lengthAdjust="spacing" textLength="140" x="3939.05" y="604.7285">TokenCleanupService</text><line style="stroke:#181818;stroke-width:0.5;" x1="3800.3" x2="4185.3" y1="615" y2="615"/><rect fill="none" height="6" style="stroke:#C82930;stroke-width:1.0;" width="6" x="3807.3" y="626.3047"/><text fill="#000000" font-family="sans-serif" font-size="14" lengthAdjust="spacing" textLength="266" x="3819.3" y="633.5332">_cleanup : IRefreshTokenStorageCleanup</text><rect fill="none" height="6" style="stroke:#C82930;stroke-width:1.0;" width="6" x="3807.3" y="643.9141"/><text fill="#000000" font-family="sans-serif" font-size="14" lengthAdjust="spacing" textLength="329" x="3819.3" y="651.1426">_getNextCleanupTime : Func&lt;DateTime, DateTime&gt;</text><line style="stroke:#181818;stroke-width:0.5;" x1="3800.3" x2="4185.3" y1="658.2188" y2="658.2188"/><ellipse cx="3810.3" cy="672.5234" fill="#84BE84" rx="3" ry="3" style="stroke:#038048;stroke-width:1.0;"/><text fill="#000000" font-family="sans-serif" font-size="14" lengthAdjust="spacing" textLength="361" x="3819.3" y="676.752">ExecuteAsync(stoppingToken: CancellationToken) : Task</text></g><!--class AuthenticationSetup--><g id="elem_AuthenticationSetup"><rect codeLine="110" fill="#F1F1F1" height="65.6094" id="AuthenticationSetup" rx="2.5" ry="2.5" style="stroke:#181818;stroke-width:0.5;" width="670" x="676.8" y="133"/><ellipse cx="944.05" cy="149" fill="#ADD1B2" rx="11" ry="11" style="stroke:#181818;stroke-width:1.0;"/><path d="M946.8156,144.875 Q946.9719,144.6563 947.1594,144.5469 Q947.3469,144.4375 947.5656,144.4375 Q947.9406,144.4375 948.175,144.7031 Q948.4094,144.9531 948.4094,145.5625 L948.4094,147.0156 Q948.4094,147.625 948.175,147.8906 Q947.9406,148.1563 947.5656,148.1563 Q947.2219,148.1563 947.0188,147.9531 Q946.8156,147.7656 946.7063,147.25 Q946.6594,146.8906 946.4719,146.7031 Q946.1438,146.3281 945.5344,146.1094 Q944.925,145.8906 944.3,145.8906 Q943.5344,145.8906 942.8938,146.2188 Q942.2688,146.5469 941.7688,147.2969 Q941.2844,148.0469 941.2844,149.0781 L941.2844,150.1719 Q941.2844,151.4063 942.175,152.2344 Q943.0656,153.0469 944.6594,153.0469 Q945.5969,153.0469 946.2531,152.7969 Q946.6438,152.6406 947.0656,152.2031 Q947.3313,151.9375 947.4719,151.8594 Q947.6281,151.7813 947.8313,151.7813 Q948.1594,151.7813 948.4094,152.0469 Q948.675,152.2969 948.675,152.6406 Q948.675,152.9844 948.3313,153.3906 Q947.8313,153.9688 947.0344,154.2969 Q945.9563,154.75 944.6594,154.75 Q943.1438,154.75 941.9406,154.125 Q940.9563,153.625 940.2688,152.5625 Q939.5813,151.4844 939.5813,150.2031 L939.5813,149.0469 Q939.5813,147.7188 940.1906,146.5781 Q940.8156,145.4219 941.9094,144.8125 Q943.0031,144.1875 944.2375,144.1875 Q944.9719,144.1875 945.6125,144.3594 Q946.2688,144.5156 946.8156,144.875 Z " fill="#000000"/><text fill="#000000" font-family="sans-serif" font-size="14" lengthAdjust="spacing" textLength="127" x="964.55" y="154.7285">AuthenticationSetup</text><line style="stroke:#181818;stroke-width:0.5;" x1="677.8" x2="1345.8" y1="165" y2="165"/><line style="stroke:#181818;stroke-width:0.5;" x1="677.8" x2="1345.8" y1="173" y2="173"/><ellipse cx="687.8" cy="187.3047" fill="#84BE84" rx="3" ry="3" style="stroke:#038048;stroke-width:1.0;"/><text fill="#000000" font-family="sans-serif" font-size="14" lengthAdjust="spacing" textLength="644" x="696.8" y="191.5332">ConfigureAuthentication(services: IServiceCollection, configuration: IConfiguration) : IServiceCollection</text></g><!--class ServiceSetup--><g id="elem_ServiceSetup"><rect codeLine="114" fill="#F1F1F1" height="65.6094" id="ServiceSetup" rx="2.5" ry="2.5" style="stroke:#181818;stroke-width:0.5;" width="625" x="2146.3" y="347"/><ellipse cx="2412.55" cy="363" fill="#ADD1B2" rx="11" ry="11" style="stroke:#181818;stroke-width:1.0;"/><path d="M2415.3156,358.875 Q2415.4719,358.6563 2415.6594,358.5469 Q2415.8469,358.4375 2416.0656,358.4375 Q2416.4406,358.4375 2416.675,358.7031 Q2416.9094,358.9531 2416.9094,359.5625 L2416.9094,361.0156 Q2416.9094,361.625 2416.675,361.8906 Q2416.4406,362.1563 2416.0656,362.1563 Q2415.7219,362.1563 2415.5187,361.9531 Q2415.3156,361.7656 2415.2062,361.25 Q2415.1594,360.8906 2414.9719,360.7031 Q2414.6437,360.3281 2414.0344,360.1094 Q2413.425,359.8906 2412.8,359.8906 Q2412.0344,359.8906 2411.3937,360.2188 Q2410.7687,360.5469 2410.2687,361.2969 Q2409.7844,362.0469 2409.7844,363.0781 L2409.7844,364.1719 Q2409.7844,365.4063 2410.675,366.2344 Q2411.5656,367.0469 2413.1594,367.0469 Q2414.0969,367.0469 2414.7531,366.7969 Q2415.1437,366.6406 2415.5656,366.2031 Q2415.8312,365.9375 2415.9719,365.8594 Q2416.1281,365.7813 2416.3312,365.7813 Q2416.6594,365.7813 2416.9094,366.0469 Q2417.175,366.2969 2417.175,366.6406 Q2417.175,366.9844 2416.8312,367.3906 Q2416.3312,367.9688 2415.5344,368.2969 Q2414.4562,368.75 2413.1594,368.75 Q2411.6437,368.75 2410.4406,368.125 Q2409.4562,367.625 2408.7687,366.5625 Q2408.0812,365.4844 2408.0812,364.2031 L2408.0812,363.0469 Q2408.0812,361.7188 2408.6906,360.5781 Q2409.3156,359.4219 2410.4094,358.8125 Q2411.5031,358.1875 2412.7375,358.1875 Q2413.4719,358.1875 2414.1125,358.3594 Q2414.7687,358.5156 2415.3156,358.875 Z " fill="#000000"/><text fill="#000000" font-family="sans-serif" font-size="14" lengthAdjust="spacing" textLength="84" x="2433.05" y="368.7285">ServiceSetup</text><line style="stroke:#181818;stroke-width:0.5;" x1="2147.3" x2="2770.3" y1="379" y2="379"/><line style="stroke:#181818;stroke-width:0.5;" x1="2147.3" x2="2770.3" y1="387" y2="387"/><ellipse cx="2157.3" cy="401.3047" fill="#84BE84" rx="3" ry="3" style="stroke:#038048;stroke-width:1.0;"/><text fill="#000000" font-family="sans-serif" font-size="14" lengthAdjust="spacing" textLength="599" x="2166.3" y="405.5332">RegisterServices(services: IServiceCollection, configuration: IConfiguration) : IServiceCollection</text></g><!--class AuthEvents--><g id="elem_AuthEvents"><rect codeLine="119" fill="#F1F1F1" height="136.0469" id="AuthEvents" rx="2.5" ry="2.5" style="stroke:#181818;stroke-width:0.5;" width="404" x="809.8" y="312"/><ellipse cx="971.55" cy="328" fill="#ADD1B2" rx="11" ry="11" style="stroke:#181818;stroke-width:1.0;"/><path d="M974.3156,323.875 Q974.4719,323.6563 974.6594,323.5469 Q974.8469,323.4375 975.0656,323.4375 Q975.4406,323.4375 975.675,323.7031 Q975.9094,323.9531 975.9094,324.5625 L975.9094,326.0156 Q975.9094,326.625 975.675,326.8906 Q975.4406,327.1563 975.0656,327.1563 Q974.7219,327.1563 974.5188,326.9531 Q974.3156,326.7656 974.2063,326.25 Q974.1594,325.8906 973.9719,325.7031 Q973.6438,325.3281 973.0344,325.1094 Q972.425,324.8906 971.8,324.8906 Q971.0344,324.8906 970.3938,325.2188 Q969.7688,325.5469 969.2688,326.2969 Q968.7844,327.0469 968.7844,328.0781 L968.7844,329.1719 Q968.7844,330.4063 969.675,331.2344 Q970.5656,332.0469 972.1594,332.0469 Q973.0969,332.0469 973.7531,331.7969 Q974.1438,331.6406 974.5656,331.2031 Q974.8313,330.9375 974.9719,330.8594 Q975.1281,330.7813 975.3313,330.7813 Q975.6594,330.7813 975.9094,331.0469 Q976.175,331.2969 976.175,331.6406 Q976.175,331.9844 975.8313,332.3906 Q975.3313,332.9688 974.5344,333.2969 Q973.4563,333.75 972.1594,333.75 Q970.6438,333.75 969.4406,333.125 Q968.4563,332.625 967.7688,331.5625 Q967.0813,330.4844 967.0813,329.2031 L967.0813,328.0469 Q967.0813,326.7188 967.6906,325.5781 Q968.3156,324.4219 969.4094,323.8125 Q970.5031,323.1875 971.7375,323.1875 Q972.4719,323.1875 973.1125,323.3594 Q973.7688,323.5156 974.3156,323.875 Z " fill="#000000"/><text fill="#000000" font-family="sans-serif" font-size="14" lengthAdjust="spacing" textLength="72" x="992.05" y="333.7285">AuthEvents</text><line style="stroke:#181818;stroke-width:0.5;" x1="810.8" x2="1212.8" y1="344" y2="344"/><rect fill="none" height="6" style="stroke:#C82930;stroke-width:1.0;" width="6" x="817.8" y="355.3047"/><text fill="#000000" font-family="sans-serif" font-size="14" lengthAdjust="spacing" textLength="298" x="829.8" y="362.5332">_refreshTokenStorage : IRefreshTokenStorage</text><rect fill="none" height="6" style="stroke:#C82930;stroke-width:1.0;" width="6" x="817.8" y="372.9141"/><text fill="#000000" font-family="sans-serif" font-size="14" lengthAdjust="spacing" textLength="157" x="829.8" y="380.1426">_cookieUtils : CookieUtils</text><rect fill="none" height="6" style="stroke:#C82930;stroke-width:1.0;" width="6" x="817.8" y="390.5234"/><text fill="#000000" font-family="sans-serif" font-size="14" lengthAdjust="spacing" textLength="107" x="829.8" y="397.752">_jwtUtils : JwtUtils</text><line style="stroke:#181818;stroke-width:0.5;" x1="810.8" x2="1212.8" y1="404.8281" y2="404.8281"/><ellipse cx="820.8" cy="419.1328" fill="#84BE84" rx="3" ry="3" style="stroke:#038048;stroke-width:1.0;"/><text fill="#000000" font-family="sans-serif" font-size="14" lengthAdjust="spacing" textLength="378" x="829.8" y="423.3613">CreatingTicket(context: OAuthCreatingTicketContext) : Task</text><ellipse cx="820.8" cy="436.7422" fill="#84BE84" rx="3" ry="3" style="stroke:#038048;stroke-width:1.0;"/><text fill="#000000" font-family="sans-serif" font-size="14" lengthAdjust="spacing" textLength="348" x="829.8" y="440.9707">TicketReceived(context: TicketReceivedContext) : Task</text></g><!--class JwtEvents--><g id="elem_JwtEvents"><rect codeLine="127" fill="#F1F1F1" height="206.4844" id="JwtEvents" rx="2.5" ry="2.5" style="stroke:#181818;stroke-width:0.5;" width="499" x="1321.3" y="277"/><ellipse cx="1535.55" cy="293" fill="#ADD1B2" rx="11" ry="11" style="stroke:#181818;stroke-width:1.0;"/><path d="M1538.3156,288.875 Q1538.4719,288.6563 1538.6594,288.5469 Q1538.8469,288.4375 1539.0656,288.4375 Q1539.4406,288.4375 1539.675,288.7031 Q1539.9094,288.9531 1539.9094,289.5625 L1539.9094,291.0156 Q1539.9094,291.625 1539.675,291.8906 Q1539.4406,292.1563 1539.0656,292.1563 Q1538.7219,292.1563 1538.5188,291.9531 Q1538.3156,291.7656 1538.2063,291.25 Q1538.1594,290.8906 1537.9719,290.7031 Q1537.6438,290.3281 1537.0344,290.1094 Q1536.425,289.8906 1535.8,289.8906 Q1535.0344,289.8906 1534.3938,290.2188 Q1533.7688,290.5469 1533.2688,291.2969 Q1532.7844,292.0469 1532.7844,293.0781 L1532.7844,294.1719 Q1532.7844,295.4063 1533.675,296.2344 Q1534.5656,297.0469 1536.1594,297.0469 Q1537.0969,297.0469 1537.7531,296.7969 Q1538.1438,296.6406 1538.5656,296.2031 Q1538.8313,295.9375 1538.9719,295.8594 Q1539.1281,295.7813 1539.3313,295.7813 Q1539.6594,295.7813 1539.9094,296.0469 Q1540.175,296.2969 1540.175,296.6406 Q1540.175,296.9844 1539.8313,297.3906 Q1539.3313,297.9688 1538.5344,298.2969 Q1537.4563,298.75 1536.1594,298.75 Q1534.6438,298.75 1533.4406,298.125 Q1532.4563,297.625 1531.7688,296.5625 Q1531.0813,295.4844 1531.0813,294.2031 L1531.0813,293.0469 Q1531.0813,291.7188 1531.6906,290.5781 Q1532.3156,289.4219 1533.4094,288.8125 Q1534.5031,288.1875 1535.7375,288.1875 Q1536.4719,288.1875 1537.1125,288.3594 Q1537.7688,288.5156 1538.3156,288.875 Z " fill="#000000"/><text fill="#000000" font-family="sans-serif" font-size="14" lengthAdjust="spacing" textLength="62" x="1556.05" y="298.7285">JwtEvents</text><line style="stroke:#181818;stroke-width:0.5;" x1="1322.3" x2="1819.3" y1="309" y2="309"/><rect fill="none" height="6" style="stroke:#C82930;stroke-width:1.0;" width="6" x="1329.3" y="320.3047"/><text fill="#000000" font-family="sans-serif" font-size="14" lengthAdjust="spacing" textLength="107" x="1341.3" y="327.5332">_jwtUtils : JwtUtils</text><rect fill="none" height="6" style="stroke:#C82930;stroke-width:1.0;" width="6" x="1329.3" y="337.9141"/><text fill="#000000" font-family="sans-serif" font-size="14" lengthAdjust="spacing" textLength="157" x="1341.3" y="345.1426">_cookieUtils : CookieUtils</text><rect fill="none" height="6" style="stroke:#C82930;stroke-width:1.0;" width="6" x="1329.3" y="355.5234"/><text fill="#000000" font-family="sans-serif" font-size="14" lengthAdjust="spacing" textLength="298" x="1341.3" y="362.752">_refreshTokenStorage : IRefreshTokenStorage</text><rect fill="none" height="6" style="stroke:#C82930;stroke-width:1.0;" width="6" x="1329.3" y="373.1328"/><text fill="#000000" font-family="sans-serif" font-size="14" lengthAdjust="spacing" textLength="355" x="1341.3" y="380.3613">_securityNotificationService : ISecurityNotificationService</text><line style="stroke:#181818;stroke-width:0.5;" x1="1322.3" x2="1819.3" y1="387.4375" y2="387.4375"/><ellipse cx="1332.3" cy="401.7422" fill="#84BE84" rx="3" ry="3" style="stroke:#038048;stroke-width:1.0;"/><text fill="#000000" font-family="sans-serif" font-size="14" lengthAdjust="spacing" textLength="386" x="1341.3" y="405.9707">MessageReceived(context: MessageReceivedContext) : Task</text><ellipse cx="1332.3" cy="419.3516" fill="#84BE84" rx="3" ry="3" style="stroke:#038048;stroke-width:1.0;"/><text fill="#000000" font-family="sans-serif" font-size="14" lengthAdjust="spacing" textLength="412" x="1341.3" y="423.5801">AuthenticationFailed(context: AuthenticationFailedContext) : Task</text><ellipse cx="1332.3" cy="436.9609" fill="#84BE84" rx="3" ry="3" style="stroke:#038048;stroke-width:1.0;"/><text fill="#000000" font-family="sans-serif" font-size="14" lengthAdjust="spacing" textLength="344" x="1341.3" y="441.1895">Challenge(context: JwtBearerChallengeContext) : Task</text><rect fill="#F24D5C" height="6" style="stroke:#C82930;stroke-width:1.0;" width="6" x="1329.3" y="451.5703"/><text fill="#000000" font-family="sans-serif" font-size="14" lengthAdjust="spacing" textLength="429" x="1341.3" y="458.7988">UpdateToken(context: HttpContext, principal: ClaimsPrincipal) : Task</text><rect fill="#F24D5C" height="6" style="stroke:#C82930;stroke-width:1.0;" width="6" x="1329.3" y="469.1797"/><text fill="#000000" font-family="sans-serif" font-size="14" lengthAdjust="spacing" textLength="473" x="1341.3" y="476.4082">ShouldUpdateToken(context: HttpContext) : Task&lt;(bool, ClaimsPrincipal?)&gt;</text></g><!--class JwtUtils--><g id="elem_JwtUtils"><rect codeLine="140" fill="#F1F1F1" height="118.4375" id="JwtUtils" rx="2.5" ry="2.5" style="stroke:#181818;stroke-width:0.5;" width="503" x="1105.3" y="574.5"/><ellipse cx="1330.05" cy="590.5" fill="#ADD1B2" rx="11" ry="11" style="stroke:#181818;stroke-width:1.0;"/><path d="M1332.8156,586.375 Q1332.9719,586.1563 1333.1594,586.0469 Q1333.3469,585.9375 1333.5656,585.9375 Q1333.9406,585.9375 1334.175,586.2031 Q1334.4094,586.4531 1334.4094,587.0625 L1334.4094,588.5156 Q1334.4094,589.125 1334.175,589.3906 Q1333.9406,589.6563 1333.5656,589.6563 Q1333.2219,589.6563 1333.0188,589.4531 Q1332.8156,589.2656 1332.7063,588.75 Q1332.6594,588.3906 1332.4719,588.2031 Q1332.1438,587.8281 1331.5344,587.6094 Q1330.925,587.3906 1330.3,587.3906 Q1329.5344,587.3906 1328.8938,587.7188 Q1328.2688,588.0469 1327.7688,588.7969 Q1327.2844,589.5469 1327.2844,590.5781 L1327.2844,591.6719 Q1327.2844,592.9063 1328.175,593.7344 Q1329.0656,594.5469 1330.6594,594.5469 Q1331.5969,594.5469 1332.2531,594.2969 Q1332.6438,594.1406 1333.0656,593.7031 Q1333.3313,593.4375 1333.4719,593.3594 Q1333.6281,593.2813 1333.8313,593.2813 Q1334.1594,593.2813 1334.4094,593.5469 Q1334.675,593.7969 1334.675,594.1406 Q1334.675,594.4844 1334.3313,594.8906 Q1333.8313,595.4688 1333.0344,595.7969 Q1331.9563,596.25 1330.6594,596.25 Q1329.1438,596.25 1327.9406,595.625 Q1326.9563,595.125 1326.2688,594.0625 Q1325.5813,592.9844 1325.5813,591.7031 L1325.5813,590.5469 Q1325.5813,589.2188 1326.1906,588.0781 Q1326.8156,586.9219 1327.9094,586.3125 Q1329.0031,585.6875 1330.2375,585.6875 Q1330.9719,585.6875 1331.6125,585.8594 Q1332.2688,586.0156 1332.8156,586.375 Z " fill="#000000"/><text fill="#000000" font-family="sans-serif" font-size="14" lengthAdjust="spacing" textLength="45" x="1350.55" y="596.2285">JwtUtils</text><line style="stroke:#181818;stroke-width:0.5;" x1="1106.3" x2="1607.3" y1="606.5" y2="606.5"/><rect fill="none" height="6" style="stroke:#C82930;stroke-width:1.0;" width="6" x="1113.3" y="617.8047"/><text fill="#000000" font-family="sans-serif" font-size="14" lengthAdjust="spacing" textLength="139" x="1125.3" y="625.0332">_settings : JwtSettings</text><rect fill="none" height="6" style="stroke:#C82930;stroke-width:1.0;" width="6" x="1113.3" y="635.4141"/><text fill="#000000" font-family="sans-serif" font-size="14" lengthAdjust="spacing" textLength="168" x="1125.3" y="642.6426">_tokenLifetime : TimeSpan</text><line style="stroke:#181818;stroke-width:0.5;" x1="1106.3" x2="1607.3" y1="649.7188" y2="649.7188"/><ellipse cx="1116.3" cy="664.0234" fill="#84BE84" rx="3" ry="3" style="stroke:#038048;stroke-width:1.0;"/><text fill="#000000" font-family="sans-serif" font-size="14" lengthAdjust="spacing" textLength="334" x="1125.3" y="668.252">GenerateToken(claims: IEnumerable&lt;Claim&gt;) : string</text><ellipse cx="1116.3" cy="681.6328" fill="#84BE84" rx="3" ry="3" style="stroke:#038048;stroke-width:1.0;"/><text fill="#000000" font-family="sans-serif" font-size="14" lengthAdjust="spacing" textLength="477" x="1125.3" y="685.8613">ValidateToken(token: string, validateLifetime: bool = true) : ClaimsPrincipal?</text></g><!--class CookieUtils--><g id="elem_CookieUtils"><rect codeLine="147" fill="#F1F1F1" height="83.2188" id="CookieUtils" rx="2.5" ry="2.5" style="stroke:#181818;stroke-width:0.5;" width="543" x="527.3" y="592"/><ellipse cx="759.55" cy="608" fill="#ADD1B2" rx="11" ry="11" style="stroke:#181818;stroke-width:1.0;"/><path d="M762.3156,603.875 Q762.4719,603.6563 762.6594,603.5469 Q762.8469,603.4375 763.0656,603.4375 Q763.4406,603.4375 763.675,603.7031 Q763.9094,603.9531 763.9094,604.5625 L763.9094,606.0156 Q763.9094,606.625 763.675,606.8906 Q763.4406,607.1563 763.0656,607.1563 Q762.7219,607.1563 762.5188,606.9531 Q762.3156,606.7656 762.2063,606.25 Q762.1594,605.8906 761.9719,605.7031 Q761.6438,605.3281 761.0344,605.1094 Q760.425,604.8906 759.8,604.8906 Q759.0344,604.8906 758.3938,605.2188 Q757.7688,605.5469 757.2688,606.2969 Q756.7844,607.0469 756.7844,608.0781 L756.7844,609.1719 Q756.7844,610.4063 757.675,611.2344 Q758.5656,612.0469 760.1594,612.0469 Q761.0969,612.0469 761.7531,611.7969 Q762.1438,611.6406 762.5656,611.2031 Q762.8313,610.9375 762.9719,610.8594 Q763.1281,610.7813 763.3313,610.7813 Q763.6594,610.7813 763.9094,611.0469 Q764.175,611.2969 764.175,611.6406 Q764.175,611.9844 763.8313,612.3906 Q763.3313,612.9688 762.5344,613.2969 Q761.4563,613.75 760.1594,613.75 Q758.6438,613.75 757.4406,613.125 Q756.4563,612.625 755.7688,611.5625 Q755.0813,610.4844 755.0813,609.2031 L755.0813,608.0469 Q755.0813,606.7188 755.6906,605.5781 Q756.3156,604.4219 757.4094,603.8125 Q758.5031,603.1875 759.7375,603.1875 Q760.4719,603.1875 761.1125,603.3594 Q761.7688,603.5156 762.3156,603.875 Z " fill="#000000"/><text fill="#000000" font-family="sans-serif" font-size="14" lengthAdjust="spacing" textLength="70" x="780.05" y="613.7285">CookieUtils</text><line style="stroke:#181818;stroke-width:0.5;" x1="528.3" x2="1069.3" y1="624" y2="624"/><rect fill="none" height="6" style="stroke:#C82930;stroke-width:1.0;" width="6" x="535.3" y="635.3047"/><text fill="#000000" font-family="sans-serif" font-size="14" lengthAdjust="spacing" textLength="174" x="547.3" y="642.5332">_cookieLifetime : TimeSpan</text><line style="stroke:#181818;stroke-width:0.5;" x1="528.3" x2="1069.3" y1="649.6094" y2="649.6094"/><ellipse cx="538.3" cy="663.9141" fill="#84BE84" rx="3" ry="3" style="stroke:#038048;stroke-width:1.0;"/><text fill="#000000" font-family="sans-serif" font-size="14" lengthAdjust="spacing" textLength="517" x="547.3" y="668.1426">SetAuthenticationCookie(response: HttpResponse, key: string, value: string) : void</text></g><!--class OAuthEvents--><g id="elem_OAuthEvents"><rect fill="#F1F1F1" height="48" id="OAuthEvents" rx="2.5" ry="2.5" style="stroke:#181818;stroke-width:0.5;" width="115" x="377.3" y="609.5"/><ellipse cx="392.3" cy="625.5" fill="#ADD1B2" rx="11" ry="11" style="stroke:#181818;stroke-width:1.0;"/><path d="M395.0656,621.375 Q395.2219,621.1563 395.4094,621.0469 Q395.5969,620.9375 395.8156,620.9375 Q396.1906,620.9375 396.425,621.2031 Q396.6594,621.4531 396.6594,622.0625 L396.6594,623.5156 Q396.6594,624.125 396.425,624.3906 Q396.1906,624.6563 395.8156,624.6563 Q395.4719,624.6563 395.2688,624.4531 Q395.0656,624.2656 394.9563,623.75 Q394.9094,623.3906 394.7219,623.2031 Q394.3938,622.8281 393.7844,622.6094 Q393.175,622.3906 392.55,622.3906 Q391.7844,622.3906 391.1438,622.7188 Q390.5188,623.0469 390.0188,623.7969 Q389.5344,624.5469 389.5344,625.5781 L389.5344,626.6719 Q389.5344,627.9063 390.425,628.7344 Q391.3156,629.5469 392.9094,629.5469 Q393.8469,629.5469 394.5031,629.2969 Q394.8938,629.1406 395.3156,628.7031 Q395.5813,628.4375 395.7219,628.3594 Q395.8781,628.2813 396.0813,628.2813 Q396.4094,628.2813 396.6594,628.5469 Q396.925,628.7969 396.925,629.1406 Q396.925,629.4844 396.5813,629.8906 Q396.0813,630.4688 395.2844,630.7969 Q394.2063,631.25 392.9094,631.25 Q391.3938,631.25 390.1906,630.625 Q389.2063,630.125 388.5188,629.0625 Q387.8313,627.9844 387.8313,626.7031 L387.8313,625.5469 Q387.8313,624.2188 388.4406,623.0781 Q389.0656,621.9219 390.1594,621.3125 Q391.2531,620.6875 392.4875,620.6875 Q393.2219,620.6875 393.8625,620.8594 Q394.5188,621.0156 395.0656,621.375 Z " fill="#000000"/><text fill="#000000" font-family="sans-serif" font-size="14" lengthAdjust="spacing" textLength="83" x="406.3" y="631.2285">OAuthEvents</text><line style="stroke:#181818;stroke-width:0.5;" x1="378.3" x2="491.3" y1="641.5" y2="641.5"/><line style="stroke:#181818;stroke-width:0.5;" x1="378.3" x2="491.3" y1="649.5" y2="649.5"/></g><!--class JwtBearerEvents--><g id="elem_JwtBearerEvents"><rect fill="#F1F1F1" height="48" id="JwtBearerEvents" rx="2.5" ry="2.5" style="stroke:#181818;stroke-width:0.5;" width="137" x="1643.3" y="609.5"/><ellipse cx="1658.3" cy="625.5" fill="#ADD1B2" rx="11" ry="11" style="stroke:#181818;stroke-width:1.0;"/><path d="M1661.0656,621.375 Q1661.2219,621.1563 1661.4094,621.0469 Q1661.5969,620.9375 1661.8156,620.9375 Q1662.1906,620.9375 1662.425,621.2031 Q1662.6594,621.4531 1662.6594,622.0625 L1662.6594,623.5156 Q1662.6594,624.125 1662.425,624.3906 Q1662.1906,624.6563 1661.8156,624.6563 Q1661.4719,624.6563 1661.2688,624.4531 Q1661.0656,624.2656 1660.9563,623.75 Q1660.9094,623.3906 1660.7219,623.2031 Q1660.3938,622.8281 1659.7844,622.6094 Q1659.175,622.3906 1658.55,622.3906 Q1657.7844,622.3906 1657.1438,622.7188 Q1656.5188,623.0469 1656.0188,623.7969 Q1655.5344,624.5469 1655.5344,625.5781 L1655.5344,626.6719 Q1655.5344,627.9063 1656.425,628.7344 Q1657.3156,629.5469 1658.9094,629.5469 Q1659.8469,629.5469 1660.5031,629.2969 Q1660.8938,629.1406 1661.3156,628.7031 Q1661.5813,628.4375 1661.7219,628.3594 Q1661.8781,628.2813 1662.0813,628.2813 Q1662.4094,628.2813 1662.6594,628.5469 Q1662.925,628.7969 1662.925,629.1406 Q1662.925,629.4844 1662.5813,629.8906 Q1662.0813,630.4688 1661.2844,630.7969 Q1660.2063,631.25 1658.9094,631.25 Q1657.3938,631.25 1656.1906,630.625 Q1655.2063,630.125 1654.5188,629.0625 Q1653.8313,627.9844 1653.8313,626.7031 L1653.8313,625.5469 Q1653.8313,624.2188 1654.4406,623.0781 Q1655.0656,621.9219 1656.1594,621.3125 Q1657.2531,620.6875 1658.4875,620.6875 Q1659.2219,620.6875 1659.8625,620.8594 Q1660.5188,621.0156 1661.0656,621.375 Z " fill="#000000"/><text fill="#000000" font-family="sans-serif" font-size="14" lengthAdjust="spacing" textLength="105" x="1672.3" y="631.2285">JwtBearerEvents</text><line style="stroke:#181818;stroke-width:0.5;" x1="1644.3" x2="1779.3" y1="641.5" y2="641.5"/><line style="stroke:#181818;stroke-width:0.5;" x1="1644.3" x2="1779.3" y1="649.5" y2="649.5"/></g><!--class Program--><g id="elem_Program"><rect codeLine="188" fill="#F1F1F1" height="48" id="Program" rx="2.5" ry="2.5" style="stroke:#181818;stroke-width:0.5;" width="86" x="1381.8" y="7"/><ellipse cx="1396.8" cy="23" fill="#ADD1B2" rx="11" ry="11" style="stroke:#181818;stroke-width:1.0;"/><path d="M1399.5656,18.875 Q1399.7219,18.6563 1399.9094,18.5469 Q1400.0969,18.4375 1400.3156,18.4375 Q1400.6906,18.4375 1400.925,18.7031 Q1401.1594,18.9531 1401.1594,19.5625 L1401.1594,21.0156 Q1401.1594,21.625 1400.925,21.8906 Q1400.6906,22.1563 1400.3156,22.1563 Q1399.9719,22.1563 1399.7688,21.9531 Q1399.5656,21.7656 1399.4563,21.25 Q1399.4094,20.8906 1399.2219,20.7031 Q1398.8938,20.3281 1398.2844,20.1094 Q1397.675,19.8906 1397.05,19.8906 Q1396.2844,19.8906 1395.6438,20.2188 Q1395.0188,20.5469 1394.5188,21.2969 Q1394.0344,22.0469 1394.0344,23.0781 L1394.0344,24.1719 Q1394.0344,25.4063 1394.925,26.2344 Q1395.8156,27.0469 1397.4094,27.0469 Q1398.3469,27.0469 1399.0031,26.7969 Q1399.3938,26.6406 1399.8156,26.2031 Q1400.0813,25.9375 1400.2219,25.8594 Q1400.3781,25.7813 1400.5813,25.7813 Q1400.9094,25.7813 1401.1594,26.0469 Q1401.425,26.2969 1401.425,26.6406 Q1401.425,26.9844 1401.0813,27.3906 Q1400.5813,27.9688 1399.7844,28.2969 Q1398.7063,28.75 1397.4094,28.75 Q1395.8938,28.75 1394.6906,28.125 Q1393.7063,27.625 1393.0188,26.5625 Q1392.3313,25.4844 1392.3313,24.2031 L1392.3313,23.0469 Q1392.3313,21.7188 1392.9406,20.5781 Q1393.5656,19.4219 1394.6594,18.8125 Q1395.7531,18.1875 1396.9875,18.1875 Q1397.7219,18.1875 1398.3625,18.3594 Q1399.0188,18.5156 1399.5656,18.875 Z " fill="#000000"/><text fill="#000000" font-family="sans-serif" font-size="14" lengthAdjust="spacing" textLength="54" x="1410.8" y="28.7285">Program</text><line style="stroke:#181818;stroke-width:0.5;" x1="1382.8" x2="1466.8" y1="39" y2="39"/><line style="stroke:#181818;stroke-width:0.5;" x1="1382.8" x2="1466.8" y1="47" y2="47"/></g><!--link AuthSettings to GoogleAuth--><g id="link_AuthSettings_GoogleAuth"><path codeLine="27" d="M1237.19,920.27 C1265.6,957.11 1300.4751,1002.3294 1328.8651,1039.1294 " fill="none" id="AuthSettings-to-GoogleAuth" style="stroke:#181818;stroke-width:1.0;"/><polygon fill="#181818" points="1332.53,1043.88,1330.1997,1034.3108,1329.4759,1039.9212,1323.8655,1039.1974,1332.53,1043.88" style="stroke:#181818;stroke-width:1.0;"/><text fill="#000000" font-family="sans-serif" font-size="13" lengthAdjust="spacing" textLength="21" x="1305.8" y="1010.4951">has</text></g><!--link AuthSettings to GitHubAuth--><g id="link_AuthSettings_GitHubAuth"><path codeLine="28" d="M1238.34,920.22 C1258.84,943.36 1285.49,969.75 1313.8,988 C1322.54,993.64 1326.03,992.43 1335.8,996 C1394.05,1017.26 1410.07,1018.95 1466.8,1044 C1472.33,1046.44 1472.5665,1046.4726 1478.2365,1049.1826 " fill="none" id="AuthSettings-to-GitHubAuth" style="stroke:#181818;stroke-width:1.0;"/><polygon fill="#181818" points="1483.65,1051.77,1477.2547,1044.28,1479.1388,1049.6138,1473.8049,1051.4979,1483.65,1051.77" style="stroke:#181818;stroke-width:1.0;"/><text fill="#000000" font-family="sans-serif" font-size="13" lengthAdjust="spacing" textLength="21" x="1386.8" y="1010.4951">has</text></g><!--link AuthSettings to FacebookAuth--><g id="link_AuthSettings_FacebookAuth"><path codeLine="29" d="M1194.56,920.27 C1191.42,957.11 1187.6685,1001.1016 1184.5385,1037.9016 " fill="none" id="AuthSettings-to-FacebookAuth" style="stroke:#181818;stroke-width:1.0;"/><polygon fill="#181818" points="1184.03,1043.88,1188.7783,1035.2514,1184.4537,1038.898,1180.8071,1034.5734,1184.03,1043.88" style="stroke:#181818;stroke-width:1.0;"/><text fill="#000000" font-family="sans-serif" font-size="13" lengthAdjust="spacing" textLength="21" x="1187.8" y="1010.4951">has</text></g><!--link TimeSettings to CleanupSettings--><g id="link_TimeSettings_CleanupSettings"><path codeLine="59" d="M1699.9,937.71 C1711.69,975.29 1724.2023,1015.1456 1734.2923,1047.2756 " fill="none" id="TimeSettings-to-CleanupSettings" style="stroke:#181818;stroke-width:1.0;"/><polygon fill="#181818" points="1736.09,1053,1737.2098,1043.215,1734.5919,1048.2297,1729.5773,1045.6119,1736.09,1053" style="stroke:#181818;stroke-width:1.0;"/><text fill="#000000" font-family="sans-serif" font-size="13" lengthAdjust="spacing" textLength="21" x="1722.8" y="1010.4951">has</text></g><!--link InMemoryRefreshTokenStorage to IRefreshTokenStorage--><g id="link_InMemoryRefreshTokenStorage_IRefreshTokenStorage"><path codeLine="82" d="M2458.8,666.55 C2458.8,694.46 2458.8,718.37 2458.8,756.79 " fill="none" id="InMemoryRefreshTokenStorage-to-IRefreshTokenStorage" style="stroke:#181818;stroke-width:1.0;stroke-dasharray:7.0,7.0;"/><polygon fill="none" points="2458.8,774.79,2464.8,756.79,2452.8,756.79,2458.8,774.79" style="stroke:#181818;stroke-width:1.0;"/></g><!--link InMemoryRefreshTokenStorage to IRefreshTokenStorageCleanup--><g id="link_InMemoryRefreshTokenStorage_IRefreshTokenStorageCleanup"><path codeLine="83" d="M2564.31,666.56 C2620,685.94 2688.12,713.66 2743.8,748.5 C2783.18,773.14 2809.3043,797.0869 2834.4743,823.4669 " fill="none" id="InMemoryRefreshTokenStorage-to-IRefreshTokenStorageCleanup" style="stroke:#181818;stroke-width:1.0;stroke-dasharray:7.0,7.0;"/><polygon fill="none" points="2846.9,836.49,2838.8153,819.325,2830.1332,827.6088,2846.9,836.49" style="stroke:#181818;stroke-width:1.0;"/></g><!--link InMemoryRefreshTokenStorage to TimeSettings--><g id="link_InMemoryRefreshTokenStorage_TimeSettings"><path codeLine="84" d="M2372.98,666.65 C2345.16,676.11 2313.95,685.73 2284.8,692.5 C2262.25,697.74 1893.59,740.66 1871.8,748.5 C1836.35,761.26 1805.534,777.9506 1774.504,797.9406 " fill="none" id="InMemoryRefreshTokenStorage-to-TimeSettings" style="stroke:#181818;stroke-width:1.0;"/><polygon fill="#181818" points="1769.46,801.19,1779.1922,799.6785,1773.6633,798.4822,1774.8597,792.9533,1769.46,801.19" style="stroke:#181818;stroke-width:1.0;"/><text fill="#000000" font-family="sans-serif" font-size="13" lengthAdjust="spacing" textLength="45" x="2043.8" y="736.9951">&#171;inject&#187;</text></g><!--link EmailSecurityNotificationService to ISecurityNotificationService--><g id="link_EmailSecurityNotificationService_ISecurityNotificationService"><path codeLine="96" d="M3623.27,666.55 C3658.79,711.23 3711.6186,777.7 3747.1386,822.38 " fill="none" id="EmailSecurityNotificationService-to-ISecurityNotificationService" style="stroke:#181818;stroke-width:1.0;stroke-dasharray:7.0,7.0;"/><polygon fill="none" points="3758.34,836.47,3751.8353,818.6462,3742.4419,826.1138,3758.34,836.47" style="stroke:#181818;stroke-width:1.0;"/></g><!--link EmailSecurityNotificationService to SecurityNotificationSettings--><g id="link_EmailSecurityNotificationService_SecurityNotificationSettings"><path codeLine="97" d="M3507.59,666.62 C3475.54,676.69 3438.94,686.68 3404.8,692.5 C3135.29,738.41 2436.12,664.97 2175.8,748.5 C2145,758.38 2119.4091,771.5631 2092.2091,789.1431 " fill="none" id="EmailSecurityNotificationService-to-SecurityNotificationSettings" style="stroke:#181818;stroke-width:1.0;"/><polygon fill="#181818" points="2087.17,792.4,2096.8999,790.8741,2091.3693,789.6859,2092.5574,784.1552,2087.17,792.4" style="stroke:#181818;stroke-width:1.0;"/><text fill="#000000" font-family="sans-serif" font-size="13" lengthAdjust="spacing" textLength="45" x="2287.8" y="736.9951">&#171;inject&#187;</text></g><!--link TokenCleanupService to IRefreshTokenStorageCleanup--><g id="link_TokenCleanupService_IRefreshTokenStorageCleanup"><path codeLine="105" d="M3818.75,684.05 C3806.29,687.07 3793.87,689.93 3781.8,692.5 C3620.86,726.81 3577.54,718.19 3415.8,748.5 C3268.43,776.12 3105.7976,813.2936 2996.7876,839.1836 " fill="none" id="TokenCleanupService-to-IRefreshTokenStorageCleanup" style="stroke:#181818;stroke-width:1.0;"/><polygon fill="#181818" points="2990.95,840.57,3000.6307,842.3821,2995.8147,839.4146,2998.7821,834.5986,2990.95,840.57" style="stroke:#181818;stroke-width:1.0;"/><text fill="#000000" font-family="sans-serif" font-size="13" lengthAdjust="spacing" textLength="45" x="3593.8" y="736.9951">&#171;inject&#187;</text></g><!--link TokenCleanupService to TimeSettings--><g id="link_TokenCleanupService_TimeSettings"><path codeLine="106" d="M3826.86,684.01 C3811.72,687.34 3796.54,690.26 3781.8,692.5 C3465.25,740.6 2661.88,732.44 2341.8,740.5 C2315.69,741.16 1896.85,741.12 1871.8,748.5 C1834.14,759.6 1801.6048,776.8907 1769.7848,797.9307 " fill="none" id="TokenCleanupService-to-TimeSettings" style="stroke:#181818;stroke-width:1.0;"/><polygon fill="#181818" points="1764.78,801.24,1774.4935,799.6126,1768.9507,798.4822,1770.0811,792.9395,1764.78,801.24" style="stroke:#181818;stroke-width:1.0;"/><text fill="#000000" font-family="sans-serif" font-size="13" lengthAdjust="spacing" textLength="45" x="3391.8" y="736.9951">&#171;inject&#187;</text></g><!--link AuthEvents to OAuthEvents--><g id="link_AuthEvents_OAuthEvents"><path codeLine="153" d="M809.64,416.03 C712.88,439.65 598.98,478.01 509.8,539 C483,557.33 470.4699,572.7263 457.3799,593.9163 " fill="none" id="AuthEvents-to-OAuthEvents" style="stroke:#181818;stroke-width:1.0;stroke-dasharray:7.0,7.0;"/><polygon fill="none" points="447.92,609.23,462.4845,597.0696,452.2754,590.763,447.92,609.23" style="stroke:#181818;stroke-width:1.0;"/></g><!--link JwtEvents to JwtBearerEvents--><g id="link_JwtEvents_JwtBearerEvents"><path codeLine="154" d="M1671.98,483.04 C1678.68,492.72 1684.75,502.76 1689.8,513 C1705.09,544.03 1708.798,566.379 1710.218,591.349 " fill="none" id="JwtEvents-to-JwtBearerEvents" style="stroke:#181818;stroke-width:1.0;stroke-dasharray:7.0,7.0;"/><polygon fill="none" points="1711.24,609.32,1716.2083,591.0084,1704.2277,591.6897,1711.24,609.32" style="stroke:#181818;stroke-width:1.0;"/></g><!--link JwtUtils to JwtSettings--><g id="link_JwtUtils_JwtSettings"><path codeLine="157" d="M1367.48,692.64 C1374.62,731.49 1382.825,776.1389 1389.615,813.0689 " fill="none" id="JwtUtils-to-JwtSettings" style="stroke:#181818;stroke-width:1.0;"/><polygon fill="#181818" points="1390.7,818.97,1393.0066,809.3951,1389.7958,814.0524,1385.1385,810.8417,1390.7,818.97" style="stroke:#181818;stroke-width:1.0;"/><text fill="#000000" font-family="sans-serif" font-size="13" lengthAdjust="spacing" textLength="28" x="1375.8" y="736.9951">uses</text></g><!--link JwtUtils to TimeSettings--><g id="link_JwtUtils_TimeSettings"><path codeLine="158" d="M1436.81,692.64 C1482.16,725.6 1534.2561,763.463 1581.5161,797.803 " fill="none" id="JwtUtils-to-TimeSettings" style="stroke:#181818;stroke-width:1.0;"/><polygon fill="#181818" points="1586.37,801.33,1581.4404,792.8036,1582.3251,798.3909,1576.7378,799.2755,1586.37,801.33" style="stroke:#181818;stroke-width:1.0;"/><text fill="#000000" font-family="sans-serif" font-size="13" lengthAdjust="spacing" textLength="45" x="1498.8" y="736.9951">&#171;inject&#187;</text></g><!--link CookieUtils to TimeSettings--><g id="link_CookieUtils_TimeSettings"><path codeLine="160" d="M963.97,675.01 C1065.41,698.2 1198.37,725.57 1317.8,740.5 C1355.11,745.16 1450.91,737.28 1486.8,748.5 C1523.75,760.05 1555.6921,777.1753 1587.1521,797.9353 " fill="none" id="CookieUtils-to-TimeSettings" style="stroke:#181818;stroke-width:1.0;"/><polygon fill="#181818" points="1592.16,801.24,1586.8512,792.9444,1587.9867,798.4861,1582.445,799.6216,1592.16,801.24" style="stroke:#181818;stroke-width:1.0;"/><text fill="#000000" font-family="sans-serif" font-size="13" lengthAdjust="spacing" textLength="45" x="1318.8" y="736.9951">&#171;inject&#187;</text></g><!--link AuthEvents to IRefreshTokenStorage--><g id="link_AuthEvents_IRefreshTokenStorage"><path codeLine="162" d="M1179.93,448.02 C1219.96,461.65 1262.94,474.43 1303.8,483 C1411.93,505.69 1716.01,464.73 1797.8,539 C1851.23,587.52 1802.68,638.71 1850.8,692.5 C1929.03,779.95 1993.59,726.27 2108.8,748.5 C2143.33,755.16 2173.3549,762.7299 2208.2549,773.2399 " fill="none" id="AuthEvents-to-IRefreshTokenStorage" style="stroke:#181818;stroke-width:1.0;"/><polygon fill="#181818" points="2214,774.97,2206.5357,768.5447,2209.2124,773.5282,2204.2289,776.2049,2214,774.97" style="stroke:#181818;stroke-width:1.0;"/><text fill="#000000" font-family="sans-serif" font-size="13" lengthAdjust="spacing" textLength="45" x="1851.8" y="638.9951">&#171;inject&#187;</text></g><!--link AuthEvents to CookieUtils--><g id="link_AuthEvents_CookieUtils"><path codeLine="163" d="M955,448.07 C916.18,493.9 869.8771,548.5709 837.0171,587.3809 " fill="none" id="AuthEvents-to-CookieUtils" style="stroke:#181818;stroke-width:1.0;"/><polygon fill="#181818" points="833.14,591.96,842.0084,587.6761,836.3709,588.1441,835.9029,582.5066,833.14,591.96" style="stroke:#181818;stroke-width:1.0;"/><text fill="#000000" font-family="sans-serif" font-size="13" lengthAdjust="spacing" textLength="45" x="899.8" y="527.4951">&#171;inject&#187;</text></g><!--link AuthEvents to JwtUtils--><g id="link_AuthEvents_JwtUtils"><path codeLine="164" d="M1103.8,448.07 C1157.79,487.43 1220.5014,533.1457 1272.2214,570.8457 " fill="none" id="AuthEvents-to-JwtUtils" style="stroke:#181818;stroke-width:1.0;"/><polygon fill="#181818" points="1277.07,574.38,1272.1533,565.8462,1273.0295,571.4348,1267.4409,572.311,1277.07,574.38" style="stroke:#181818;stroke-width:1.0;"/><text fill="#000000" font-family="sans-serif" font-size="13" lengthAdjust="spacing" textLength="45" x="1215.8" y="527.4951">&#171;inject&#187;</text></g><!--link JwtEvents to JwtUtils--><g id="link_JwtEvents_JwtUtils"><path codeLine="166" d="M1483.76,483.29 C1457.37,514.3 1433.1976,542.7098 1410.1876,569.7598 " fill="none" id="JwtEvents-to-JwtUtils" style="stroke:#181818;stroke-width:1.0;"/><polygon fill="#181818" points="1406.3,574.33,1415.1782,570.0665,1409.5397,570.5215,1409.0846,564.883,1406.3,574.33" style="stroke:#181818;stroke-width:1.0;"/><text fill="#000000" font-family="sans-serif" font-size="13" lengthAdjust="spacing" textLength="45" x="1457.8" y="527.4951">&#171;inject&#187;</text></g><!--link JwtEvents to CookieUtils--><g id="link_JwtEvents_CookieUtils"><path codeLine="167" d="M1321.24,455.33 C1261.33,473.7 1197.66,493.67 1138.8,513 C1062.26,538.13 982.3586,566.1868 916.2186,589.8768 " fill="none" id="JwtEvents-to-CookieUtils" style="stroke:#181818;stroke-width:1.0;"/><polygon fill="#181818" points="910.57,591.9,920.3917,592.6309,915.2772,590.214,917.6941,585.0995,910.57,591.9" style="stroke:#181818;stroke-width:1.0;"/><text fill="#000000" font-family="sans-serif" font-size="13" lengthAdjust="spacing" textLength="45" x="1139.8" y="527.4951">&#171;inject&#187;</text></g><!--link JwtEvents to IRefreshTokenStorage--><g id="link_JwtEvents_IRefreshTokenStorage"><path codeLine="168" d="M1784.62,483.18 C1838.78,508.67 1883.78,529.34 1890.8,531 C1906.64,534.76 2170.11,530.19 2183.8,539 C2247.65,580.09 2212.74,632.14 2258.8,692.5 C2281.18,721.82 2304.5509,745.9566 2332.2809,770.7966 " fill="none" id="JwtEvents-to-IRefreshTokenStorage" style="stroke:#181818;stroke-width:1.0;"/><polygon fill="#181818" points="2336.75,774.8,2332.7152,765.8155,2333.0257,771.4639,2327.3774,771.7744,2336.75,774.8" style="stroke:#181818;stroke-width:1.0;"/><text fill="#000000" font-family="sans-serif" font-size="13" lengthAdjust="spacing" textLength="45" x="2259.8" y="638.9951">&#171;inject&#187;</text></g><!--link JwtEvents to ISecurityNotificationService--><g id="link_JwtEvents_ISecurityNotificationService"><path codeLine="169" d="M1820.48,433.5 C1916.47,451.87 2027.34,470.91 2128.8,483 C2322.93,506.13 2832.3,450.84 3006.8,539 C3087.11,579.57 3061.57,646.33 3138.8,692.5 C3191.93,724.26 3214.8,707.29 3274.8,722.5 C3415.6,758.19 3570.7458,803.7068 3673.2858,834.6468 " fill="none" id="JwtEvents-to-ISecurityNotificationService" style="stroke:#181818;stroke-width:1.0;"/><polygon fill="#181818" points="3679.03,836.38,3671.5692,829.9507,3674.2432,834.9356,3669.2582,837.6096,3679.03,836.38" style="stroke:#181818;stroke-width:1.0;"/><text fill="#000000" font-family="sans-serif" font-size="13" lengthAdjust="spacing" textLength="45" x="3139.8" y="638.9951">&#171;inject&#187;</text></g><!--link AuthenticationSetup to JwtSettings--><g id="link_AuthenticationSetup_JwtSettings"><path codeLine="171" d="M848.07,199.09 C685.27,240.68 444.19,330.66 332.8,513 C302.85,562.02 124.72,481.31 359.8,692.5 C364.73,696.93 1306.98,745.32 1312.8,748.5 C1341.12,764.01 1359.6369,787.9371 1374.1569,813.6171 " fill="none" id="AuthenticationSetup-to-JwtSettings" style="stroke:#181818;stroke-width:1.0;"/><polygon fill="#181818" points="1377.11,818.84,1376.1622,809.0369,1374.649,814.4876,1369.1983,812.9744,1377.11,818.84" style="stroke:#181818;stroke-width:1.0;"/><text fill="#000000" font-family="sans-serif" font-size="13" lengthAdjust="spacing" textLength="190" x="333.8" y="527.4951">uses (GetSection("JwtSettings"))</text></g><!--link AuthenticationSetup to AuthSettings--><g id="link_AuthenticationSetup_AuthSettings"><path codeLine="172" d="M676.56,170.97 C524.2,177.82 363.47,193.66 297.8,229 C150.41,308.32 6,377.53 72.8,531 C127.33,656.28 174.49,681.63 297.8,740.5 C438.77,807.81 893.5955,847.0789 1095.9955,861.6589 " fill="none" id="AuthenticationSetup-to-AuthSettings" style="stroke:#181818;stroke-width:1.0;"/><polygon fill="#181818" points="1101.98,862.09,1093.2907,857.4537,1096.9929,861.7308,1092.7159,865.433,1101.98,862.09" style="stroke:#181818;stroke-width:1.0;"/><text fill="#000000" font-family="sans-serif" font-size="13" lengthAdjust="spacing" textLength="206" x="73.8" y="527.4951">uses (GetSection("Authentication"))</text></g><!--link AuthenticationSetup to JwtEvents--><g id="link_AuthenticationSetup_JwtEvents"><path codeLine="173" d="M1096.4,199.08 C1156.45,221.86 1234.7898,251.5727 1315.4098,282.1427 " fill="none" id="AuthenticationSetup-to-JwtEvents" style="stroke:#181818;stroke-width:1.0;"/><polygon fill="#181818" points="1321.02,284.27,1314.0229,277.3389,1316.3448,282.4972,1311.1865,284.8192,1321.02,284.27" style="stroke:#181818;stroke-width:1.0;"/><text fill="#000000" font-family="sans-serif" font-size="13" lengthAdjust="spacing" textLength="129" x="1208.8" y="243.4951">registers (AddScoped)</text></g><!--link AuthenticationSetup to AuthEvents--><g id="link_AuthenticationSetup_AuthEvents"><path codeLine="174" d="M1011.8,199.2 C1011.8,228.97 1011.8,268.15 1011.8,305.78 " fill="none" id="AuthenticationSetup-to-AuthEvents" style="stroke:#181818;stroke-width:1.0;"/><polygon fill="#181818" points="1011.8,311.78,1015.8,302.78,1011.8,306.78,1007.8,302.78,1011.8,311.78" style="stroke:#181818;stroke-width:1.0;"/><text fill="#000000" font-family="sans-serif" font-size="13" lengthAdjust="spacing" textLength="129" x="1012.8" y="243.4951">registers (AddScoped)</text></g><!--link ServiceSetup to TimeSettings--><g id="link_ServiceSetup_TimeSettings"><path codeLine="176" d="M2236.97,413.07 C2146.89,435.62 2047.21,473.95 1974.8,539 C1919.16,588.99 1952.06,633.73 1905.8,692.5 C1872.87,734.33 1832.8154,768.3828 1791.6054,797.9428 " fill="none" id="ServiceSetup-to-TimeSettings" style="stroke:#181818;stroke-width:1.0;"/><polygon fill="#181818" points="1786.73,801.44,1796.3746,799.4446,1790.7929,798.5257,1791.7117,792.944,1786.73,801.44" style="stroke:#181818;stroke-width:1.0;"/><text fill="#000000" font-family="sans-serif" font-size="13" lengthAdjust="spacing" textLength="59" x="1975.8" y="638.9951">configures</text></g><!--link ServiceSetup to SecurityNotificationSettings--><g id="link_ServiceSetup_SecurityNotificationSettings"><path codeLine="177" d="M2331.9,413.14 C2259.83,437.18 2172.71,476.85 2114.8,539 C2079.75,576.62 2038.9054,701.3645 2013.8554,786.4045 " fill="none" id="ServiceSetup-to-SecurityNotificationSettings" style="stroke:#181818;stroke-width:1.0;"/><polygon fill="#181818" points="2012.16,792.16,2018.5401,784.657,2013.5728,787.3638,2010.8661,782.3965,2012.16,792.16" style="stroke:#181818;stroke-width:1.0;"/><text fill="#000000" font-family="sans-serif" font-size="13" lengthAdjust="spacing" textLength="59" x="2115.8" y="638.9951">configures</text></g><!--link ServiceSetup to CookieUtils--><g id="link_ServiceSetup_CookieUtils"><path codeLine="178" d="M2281.2,413.01 C2157.24,434.66 1987.77,462.86 1837.8,483 C1710.69,500.07 1674.46,479 1550.8,513 C1532.39,518.06 1530.41,526.73 1511.8,531 C1465.87,541.54 1134.27,531.22 1087.8,539 C1023.57,549.75 959.6845,569.828 904.9245,589.868 " fill="none" id="ServiceSetup-to-CookieUtils" style="stroke:#181818;stroke-width:1.0;"/><polygon fill="#181818" points="899.29,591.93,909.1165,592.5933,903.9855,590.2116,906.3671,585.0806,899.29,591.93" style="stroke:#181818;stroke-width:1.0;"/><text fill="#000000" font-family="sans-serif" font-size="13" lengthAdjust="spacing" textLength="129" x="1551.8" y="527.4951">registers (AddScoped)</text></g><!--link ServiceSetup to JwtUtils--><g id="link_ServiceSetup_JwtUtils"><path codeLine="179" d="M2310.48,413.05 C2156,445.7 1906.72,496.33 1689.8,531 C1661.49,535.52 1653.71,532.48 1625.8,539 C1586.32,548.22 1550.203,559.1762 1511.643,572.4562 " fill="none" id="ServiceSetup-to-JwtUtils" style="stroke:#181818;stroke-width:1.0;"/><polygon fill="#181818" points="1505.97,574.41,1515.782,575.2613,1510.6975,572.7819,1513.177,567.6974,1505.97,574.41" style="stroke:#181818;stroke-width:1.0;"/><text fill="#000000" font-family="sans-serif" font-size="13" lengthAdjust="spacing" textLength="129" x="1795.8" y="527.4951">registers (AddScoped)</text></g><!--link ServiceSetup to IRefreshTokenStorage--><g id="link_ServiceSetup_IRefreshTokenStorage"><path codeLine="180" d="M2763.19,413.07 C2937.09,437.61 3132.45,477.83 3193.8,539 C3258.45,603.47 3297.83,675.41 3233.8,740.5 C3224.25,750.2 2757.12,745.7 2743.8,748.5 C2713.99,754.77 2689.0146,762.0982 2659.4446,772.9182 " fill="none" id="ServiceSetup-to-IRefreshTokenStorage" style="stroke:#181818;stroke-width:1.0;"/><polygon fill="#181818" points="2653.81,774.98,2663.6365,775.6438,2658.5055,773.2619,2660.8874,768.1309,2653.81,774.98" style="stroke:#181818;stroke-width:1.0;"/><text fill="#000000" font-family="sans-serif" font-size="13" lengthAdjust="spacing" textLength="139" x="3266.8" y="638.9951">registers (AddSingleton)</text></g><!--link ServiceSetup to InMemoryRefreshTokenStorage--><g id="link_ServiceSetup_InMemoryRefreshTokenStorage"><path codeLine="181" d="M2458.8,413.11 C2458.8,461.31 2458.8,545.86 2458.8,594.19 " fill="none" id="ServiceSetup-to-InMemoryRefreshTokenStorage" style="stroke:#181818;stroke-width:1.0;"/><polygon fill="#181818" points="2458.8,600.19,2462.8,591.19,2458.8,595.19,2454.8,591.19,2458.8,600.19" style="stroke:#181818;stroke-width:1.0;"/><text fill="#000000" font-family="sans-serif" font-size="13" lengthAdjust="spacing" textLength="198" x="2459.8" y="527.4951">implements IRefreshTokenStorage</text></g><!--link ServiceSetup to IRefreshTokenStorageCleanup--><g id="link_ServiceSetup_IRefreshTokenStorageCleanup"><path codeLine="182" d="M2529.7,413.05 C2573.73,435.82 2628.94,469.97 2666.8,513 C2724.98,579.13 2706.45,616.4 2750.8,692.5 C2781.46,745.12 2819.885,797.1071 2846.555,831.5271 " fill="none" id="ServiceSetup-to-IRefreshTokenStorageCleanup" style="stroke:#181818;stroke-width:1.0;"/><polygon fill="#181818" points="2850.23,836.27,2847.8795,826.7057,2847.1675,832.3176,2841.5557,831.6057,2850.23,836.27" style="stroke:#181818;stroke-width:1.0;"/><text fill="#000000" font-family="sans-serif" font-size="13" lengthAdjust="spacing" textLength="343" x="2751.8" y="638.9951">registers (AddSingleton via InMemoryRefreshTokenStorage)</text></g><!--link ServiceSetup to TokenCleanupService--><g id="link_ServiceSetup_TokenCleanupService"><path codeLine="183" d="M2771.32,412.84 C3004.84,437.55 3331.73,474.05 3617.8,513 C3690.92,522.96 3711.02,518.1 3781.8,539 C3819.94,550.26 3854.7671,564.3469 3889.7971,580.4269 " fill="none" id="ServiceSetup-to-TokenCleanupService" style="stroke:#181818;stroke-width:1.0;"/><polygon fill="#181818" points="3895.25,582.93,3888.7393,575.5401,3890.7059,580.8441,3885.4019,582.8107,3895.25,582.93" style="stroke:#181818;stroke-width:1.0;"/><text fill="#000000" font-family="sans-serif" font-size="13" lengthAdjust="spacing" textLength="158" x="3751.8" y="527.4951">registers as IHostedService</text></g><!--link ServiceSetup to ISecurityNotificationService--><g id="link_ServiceSetup_ISecurityNotificationService"><path codeLine="184" d="M2771.41,386.9 C3247.51,399.17 4109.36,435.55 4203.8,539 C4249.8,589.38 4241.58,635.7 4203.8,692.5 C4153.17,768.61 4068.3595,810.1882 3984.2495,834.7482 " fill="none" id="ServiceSetup-to-ISecurityNotificationService" style="stroke:#181818;stroke-width:1.0;"/><polygon fill="#181818" points="3978.49,836.43,3988.2504,837.747,3983.2896,835.0285,3986.0081,830.0677,3978.49,836.43" style="stroke:#181818;stroke-width:1.0;"/><text fill="#000000" font-family="sans-serif" font-size="13" lengthAdjust="spacing" textLength="129" x="4235.8" y="638.9951">registers (AddScoped)</text></g><!--link ServiceSetup to EmailSecurityNotificationService--><g id="link_ServiceSetup_EmailSecurityNotificationService"><path codeLine="185" d="M2771.33,407.15 C2958.78,429.19 3199.8,468.85 3404.8,539 C3452.35,555.27 3498.1371,577.5643 3535.7871,597.6643 " fill="none" id="ServiceSetup-to-EmailSecurityNotificationService" style="stroke:#181818;stroke-width:1.0;"/><polygon fill="#181818" points="3541.08,600.49,3535.0244,592.7228,3536.6692,598.1352,3531.2568,599.7801,3541.08,600.49" style="stroke:#181818;stroke-width:1.0;"/><text fill="#000000" font-family="sans-serif" font-size="13" lengthAdjust="spacing" textLength="228" x="3380.8" y="527.4951">implements ISecurityNotificationService</text></g><!--link Program to AuthenticationSetup--><g id="link_Program_AuthenticationSetup"><path codeLine="189" d="M1381.77,45.86 C1318.24,66.32 1203.2813,103.3413 1117.0213,131.1113 " fill="none" id="Program-to-AuthenticationSetup" style="stroke:#181818;stroke-width:1.0;"/><polygon fill="#181818" points="1111.31,132.95,1121.1028,133.9995,1116.0694,131.4178,1118.6512,126.3844,1111.31,132.95" style="stroke:#181818;stroke-width:1.0;"/><text fill="#000000" font-family="sans-serif" font-size="13" lengthAdjust="spacing" textLength="145" x="1255.8" y="99.4951">ConfigureAuthentication()</text></g><!--link Program to ServiceSetup--><g id="link_Program_ServiceSetup"><path codeLine="190" d="M1467.91,46.47 C1621.75,98.1 2140.4017,272.1512 2357.6417,345.0512 " fill="none" id="Program-to-ServiceSetup" style="stroke:#181818;stroke-width:1.0;"/><polygon fill="#181818" points="2363.33,346.96,2356.0702,340.3046,2358.5898,345.3693,2353.525,347.8889,2363.33,346.96" style="stroke:#181818;stroke-width:1.0;"/><text fill="#000000" font-family="sans-serif" font-size="13" lengthAdjust="spacing" textLength="105" x="1907.8" y="171.4951">RegisterServices()</text></g><!--SRC=[lLZRRjiu47ttLn1vgOqw_G0ZSU5LbSIzk8Rj5hjF0IDD73Qo98YKsw3TVzyXHKcaHD5fjxjvYQIvdRbmPkWNvFBoagmNmRl5TRYLBwESHezq3-HiaUTR48AbUtxsVKJmBqeevsHHYeUQG2g2_7jvdMNx1CYCL0-IpI0oSLFUIQ9wi8bND8AxB7j4SltOCFmzCaotcat3GS8W5SiOnRae45QNj8Me0E4YqoIvGt_N53LQPDjiW_b_DMl6mZICYN5QLGdxLPDMLi_FvsQiP-I1yW6kDZGUBikJYi_my-rNuQgdofTtyEHmPybv2OKh1cMCeO_04rRKMnPCFAqomUvPH0NBKgVzWy1u5aUd7KbSPuKCDKk52JgDeGWFb2KkAKLT8uglMH4FCgpe0Hp4CALt2Movr8pHJFgkxTW1NAu467i6xzaz2APKAyQSfYqB9i5BtsMFa7evWWHeMkP8qqyr4gCBW5Z1Dw7fkqhJLPb65s-e0Fa-9VNJlEzUHw-LB44BLzqlKu4ff4aNiTPh1KnMQjT4LQp8tRJ5hSWAVE1dsZoJ5kwnmCbo0_S5y0SLAircDKX8eK3lJBO5VqgZSScXMCOr-ea4I_dZHVKwDxtCYfFYKr8O75sbhRBFD67nC-3uzLt8IZGWRk28RByBO_WjPmKiaiHKo7r1Ctj4XIN-lGukUGNgDwlTPEBVvy8i65tX_lAip-pttZ7MJbO17rlHjSxaClq0XwnuyjV- -QqmJzhCFdXZbdw1IFRXYMd0f_hLgnzpfqU_BgaTFwb0jecTxSt5HUN1V6wt2cmzB7As2lSGKkncCXJvQPrnph3rAnYx1xWNxjgGxshqj9zOleXZT87RN8izxYVEesCbLobx7jJpMzx6mpjY1x9zqbQLE0_7yzJ8z7dnMUaqXwkCVZCV-lv7pVmxLLqL__wdXw5kYGXUG5K1N6HvZgXrEmWehZv9elnHdrofTVaXW-Bh3rPCV4gy1-E5kcs4V-x2rHiIl5zignj7Uwt0ecopqRGbN5_IUxOl2x1vnboVhvai2_KOP4bIrTQKH5fAyI9BOBxBmFI59CXwILGa2yO6zepZ2QwFzNzZNmVfSxZQEMCK7Z42zUvpVbiuEjHik3DYcQfTy9DWYKnGqBvf-fUleYQ-rOyw2mLGcTSTYnv1ZD4zWUKx8nybAfiOL3Ih-bvMf0r4m8uGj_Bszwvean44qt5z2Ebf7tywQDpJK6QdczBB3zY1KLlV-Gx16JYxwg-mlvaQN5Idck01xu2Gxg6LnR3z0RI0eg6v9Cy_vN9FL65fPM-4o3NtbEGuHoAMqqGk_vGT-Bh-O6lQFcHb4f_Ir-mpOxaaJRigNq-CRl9fjto_tFtLEofrHJJLOemduyAfYS9tksaMTurOeS6iXsbvmEyuc2yKmld4le0q6tOb9yoLRKgEcbXRhUvqv9A8eeG9wGNoTNiKZ89kt8kyLpoyM0gxK2eTOwptF4ivLF7VwBSfUOGd2se9vhPmp5ZSfg0A_N9r4swMkyKg25KQZ5wb9lV7ziEeFSkAr9IX9ckzRy8r3efm5IprJrDDJkMaCNyrcCcbXjlquKaqCkDtWjNmOcX6sX8TWS3gHCDyRzjUPffl0pNCPFCC6hJPJZlIuTzwEs0tPDr1xauO6L-3_9LC3VCpWtuscGogiNvSSkcn1NsgMXTdUA-gXZigmurv6sKvn7uG9qH7rWhXABDwFy32xR6UM51zedO1kB7rX8pAUgR4G05rf15l0a9k-dq5dYlMZB13di111TWvbf-5fzrU1s2H8wC-80xOhiNNr4yHy4s6pt6z0FIX-i_ICnDmyg9Z1z6tekX-kzvylDuiFXX3T5ra-u8UHlf_K_hT8o5tBFUAFh5aBITcfBTGJqR_0000]--></g></svg>